# Blender v2.78 (sub 0) OBJ File: 'corewar.blend'
# www.blender.org
o Text_Text.002
v -0.442790 0.000000 -0.120000
v -0.066614 0.000000 -0.120000
v -0.066614 0.058777 -0.120000
v -0.228056 0.058777 -0.120000
v -0.228056 0.474138 -0.120000
v -0.077586 0.379310 -0.120000
v -0.077586 0.449843 -0.120000
v -0.235893 0.548589 -0.120000
v -0.288401 0.548589 -0.120000
v -0.288401 0.058777 -0.120000
v -0.442790 0.058777 -0.120000
v -0.442790 0.000000 0.120000
v -0.066614 0.000000 0.120000
v -0.066614 0.058777 0.120000
v -0.228056 0.058777 0.120000
v -0.228056 0.474138 0.120000
v -0.077586 0.379310 0.120000
v -0.077586 0.449843 0.120000
v -0.235893 0.548589 0.120000
v -0.288401 0.548589 0.120000
v -0.288401 0.058777 0.120000
v -0.442790 0.058777 0.120000
v -0.442790 0.000000 0.120000
v -0.442790 0.000000 -0.120000
v -0.066614 0.000000 0.120000
v -0.066614 0.000000 -0.120000
v -0.066614 0.058777 0.120000
v -0.066614 0.058777 -0.120000
v -0.228056 0.058777 0.120000
v -0.228056 0.058777 -0.120000
v -0.228056 0.474138 0.120000
v -0.228056 0.474138 -0.120000
v -0.077586 0.379310 0.120000
v -0.077586 0.379310 -0.120000
v -0.077586 0.449843 0.120000
v -0.077586 0.449843 -0.120000
v -0.235893 0.548589 0.120000
v -0.235893 0.548589 -0.120000
v -0.288401 0.548589 0.120000
v -0.288401 0.548589 -0.120000
v -0.288401 0.058777 0.120000
v -0.288401 0.058777 -0.120000
v -0.442790 0.058777 0.120000
v -0.442790 0.058777 -0.120000
vn 0.0000 0.0000 -1.0000
vn 0.0000 0.0000 1.0000
vn 0.7071 -0.7071 0.0000
vn -0.7071 -0.7071 0.0000
vn 0.7071 0.7071 0.0000
vn 0.4831 -0.8755 0.0000
vn 0.8744 0.4852 0.0000
vn 0.2752 0.9614 0.0000
vn -0.7071 0.7071 0.0000
s off
f 7//1 9//1 8//1
f 7//1 5//1 9//1
f 5//1 10//1 9//1
f 7//1 6//1 5//1
f 4//1 10//1 5//1
f 2//1 4//1 3//1
f 2//1 10//1 4//1
f 2//1 11//1 10//1
f 2//1 1//1 11//1
f 20//2 18//2 19//2
f 16//2 18//2 20//2
f 21//2 16//2 20//2
f 17//2 18//2 16//2
f 21//2 15//2 16//2
f 15//2 13//2 14//2
f 21//2 13//2 15//2
f 22//2 13//2 21//2
f 12//2 13//2 22//2
s 1
f 26//3 23//4 24//4
f 28//5 25//3 26//3
f 30//5 27//5 28//5
f 32//6 29//5 30//5
f 34//6 31//6 32//6
f 36//7 33//6 34//6
f 38//8 35//7 36//7
f 40//9 37//8 38//8
f 42//9 39//9 40//9
f 44//9 41//9 42//9
f 24//4 43//9 44//9
f 26//3 25//3 23//4
f 28//5 27//5 25//3
f 30//5 29//5 27//5
f 32//6 31//6 29//5
f 34//6 33//6 31//6
f 36//7 35//7 33//6
f 38//8 37//8 35//7
f 40//9 39//9 37//8
f 42//9 41//9 39//9
f 44//9 43//9 41//9
f 24//4 23//4 43//9
