# Blender v2.78 (sub 0) OBJ File: ''
# www.blender.org
o Text
v 0.300940 0.100000 -0.322884
v 0.208464 0.100000 -0.322884
v 0.208464 0.100000 -0.415360
v 0.300940 0.100000 -0.415360
v 0.300940 0.100000 0.000000
v 0.208464 0.100000 0.000000
v 0.208464 0.100000 -0.092476
v 0.300940 0.100000 -0.092476
v 0.300940 -0.100000 -0.322884
v 0.208464 -0.100000 -0.322884
v 0.208464 -0.100000 -0.415360
v 0.300940 -0.100000 -0.415360
v 0.300940 -0.100000 0.000000
v 0.208464 -0.100000 0.000000
v 0.208464 -0.100000 -0.092476
v 0.300940 -0.100000 -0.092476
v 0.300940 -0.100000 0.000000
v 0.300940 0.100000 0.000000
v 0.208464 -0.100000 0.000000
v 0.208464 0.100000 0.000000
v 0.208464 -0.100000 -0.092476
v 0.208464 0.100000 -0.092476
v 0.300940 -0.100000 -0.092476
v 0.300940 0.100000 -0.092476
v 0.300940 -0.100000 -0.322884
v 0.300940 0.100000 -0.322884
v 0.208464 -0.100000 -0.322884
v 0.208464 0.100000 -0.322884
v 0.208464 -0.100000 -0.415360
v 0.208464 0.100000 -0.415360
v 0.300940 -0.100000 -0.415360
v 0.300940 0.100000 -0.415360
vn 0.0000 1.0000 0.0000
vn 0.0000 -1.0000 0.0000
vn -0.7071 0.0000 0.7071
vn 0.7071 0.0000 0.7071
vn -0.7071 0.0000 -0.7071
vn 0.7071 0.0000 -0.7071
s off
f 6//1 8//1 7//1
f 6//1 5//1 8//1
f 2//1 4//1 3//1
f 2//1 1//1 4//1
f 16//2 14//2 15//2
f 13//2 14//2 16//2
f 12//2 10//2 11//2
f 9//2 10//2 12//2
s 1
f 20//3 17//4 18//4
f 22//5 19//3 20//3
f 24//6 21//5 22//5
f 18//4 23//6 24//6
f 28//3 25//4 26//4
f 30//5 27//3 28//3
f 32//6 29//5 30//5
f 26//4 31//6 32//6
f 20//3 19//3 17//4
f 22//5 21//5 19//3
f 24//6 23//6 21//5
f 18//4 17//4 23//6
f 28//3 27//3 25//4
f 30//5 29//5 27//3
f 32//6 31//6 29//5
f 26//4 25//4 31//6
