# Blender v2.78 (sub 0) OBJ File: 'corewar.blend'
# www.blender.org
o Text_Text.002
v -0.284483 0.000000 -0.120000
v -0.220219 0.000000 -0.120000
v -0.220219 0.358150 -0.120000
v -0.089342 0.358150 -0.120000
v -0.089342 0.415360 -0.120000
v -0.220219 0.415360 -0.120000
v -0.220219 0.478840 -0.120000
v -0.220388 0.487368 -0.120000
v -0.220894 0.495450 -0.120000
v -0.221738 0.503086 -0.120000
v -0.222919 0.510275 -0.120000
v -0.224437 0.517018 -0.120000
v -0.226293 0.523315 -0.120000
v -0.228486 0.529166 -0.120000
v -0.231017 0.534570 -0.120000
v -0.233885 0.539528 -0.120000
v -0.237091 0.544039 -0.120000
v -0.240634 0.548105 -0.120000
v -0.244514 0.551724 -0.120000
v -0.248699 0.554979 -0.120000
v -0.253157 0.557950 -0.120000
v -0.257886 0.560639 -0.120000
v -0.262888 0.563044 -0.120000
v -0.268161 0.565167 -0.120000
v -0.273707 0.567006 -0.120000
v -0.279525 0.568563 -0.120000
v -0.285615 0.569836 -0.120000
v -0.291977 0.570827 -0.120000
v -0.298611 0.571534 -0.120000
v -0.305517 0.571959 -0.120000
v -0.312696 0.572100 -0.120000
v -0.397335 0.572100 -0.120000
v -0.397335 0.514890 -0.120000
v -0.324451 0.514890 -0.120000
v -0.320514 0.514825 -0.120000
v -0.316799 0.514629 -0.120000
v -0.313308 0.514302 -0.120000
v -0.310040 0.513845 -0.120000
v -0.306995 0.513258 -0.120000
v -0.304173 0.512539 -0.120000
v -0.301574 0.511690 -0.120000
v -0.299199 0.510711 -0.120000
v -0.297046 0.509600 -0.120000
v -0.295117 0.508359 -0.120000
v -0.293411 0.506988 -0.120000
v -0.291928 0.505486 -0.120000
v -0.290614 0.503777 -0.120000
v -0.289414 0.501785 -0.120000
v -0.288328 0.499510 -0.120000
v -0.287356 0.496952 -0.120000
v -0.286499 0.494111 -0.120000
v -0.285756 0.490987 -0.120000
v -0.285128 0.487581 -0.120000
v -0.284613 0.483891 -0.120000
v -0.284213 0.479918 -0.120000
v -0.283928 0.475662 -0.120000
v -0.283756 0.471123 -0.120000
v -0.283699 0.466301 -0.120000
v -0.283699 0.415360 -0.120000
v -0.434953 0.415360 -0.120000
v -0.434953 0.358150 -0.120000
v -0.284483 0.358150 -0.120000
v -0.284483 0.000000 0.120000
v -0.220219 0.000000 0.120000
v -0.220219 0.358150 0.120000
v -0.089342 0.358150 0.120000
v -0.089342 0.415360 0.120000
v -0.220219 0.415360 0.120000
v -0.220219 0.478840 0.120000
v -0.220388 0.487368 0.120000
v -0.220894 0.495450 0.120000
v -0.221738 0.503086 0.120000
v -0.222919 0.510275 0.120000
v -0.224437 0.517018 0.120000
v -0.226293 0.523315 0.120000
v -0.228486 0.529166 0.120000
v -0.231017 0.534570 0.120000
v -0.233885 0.539528 0.120000
v -0.237091 0.544039 0.120000
v -0.240634 0.548105 0.120000
v -0.244514 0.551724 0.120000
v -0.248699 0.554979 0.120000
v -0.253157 0.557950 0.120000
v -0.257886 0.560639 0.120000
v -0.262888 0.563044 0.120000
v -0.268161 0.565167 0.120000
v -0.273707 0.567006 0.120000
v -0.279525 0.568563 0.120000
v -0.285615 0.569836 0.120000
v -0.291977 0.570827 0.120000
v -0.298611 0.571534 0.120000
v -0.305517 0.571959 0.120000
v -0.312696 0.572100 0.120000
v -0.397335 0.572100 0.120000
v -0.397335 0.514890 0.120000
v -0.324451 0.514890 0.120000
v -0.320514 0.514825 0.120000
v -0.316799 0.514629 0.120000
v -0.313308 0.514302 0.120000
v -0.310040 0.513845 0.120000
v -0.306995 0.513258 0.120000
v -0.304173 0.512539 0.120000
v -0.301574 0.511690 0.120000
v -0.299199 0.510711 0.120000
v -0.297046 0.509600 0.120000
v -0.295117 0.508359 0.120000
v -0.293411 0.506988 0.120000
v -0.291928 0.505486 0.120000
v -0.290614 0.503777 0.120000
v -0.289414 0.501785 0.120000
v -0.288328 0.499510 0.120000
v -0.287356 0.496952 0.120000
v -0.286499 0.494111 0.120000
v -0.285756 0.490987 0.120000
v -0.285128 0.487581 0.120000
v -0.284613 0.483891 0.120000
v -0.284213 0.479918 0.120000
v -0.283928 0.475662 0.120000
v -0.283756 0.471123 0.120000
v -0.283699 0.466301 0.120000
v -0.283699 0.415360 0.120000
v -0.434953 0.415360 0.120000
v -0.434953 0.358150 0.120000
v -0.284483 0.358150 0.120000
v -0.284483 0.000000 0.120000
v -0.284483 0.000000 -0.120000
v -0.220219 0.000000 0.120000
v -0.220219 0.000000 -0.120000
v -0.220219 0.358150 0.120000
v -0.220219 0.358150 -0.120000
v -0.089342 0.358150 0.120000
v -0.089342 0.358150 -0.120000
v -0.089342 0.415360 0.120000
v -0.089342 0.415360 -0.120000
v -0.220219 0.415360 0.120000
v -0.220219 0.415360 -0.120000
v -0.220219 0.478840 0.120000
v -0.220219 0.478840 -0.120000
v -0.220388 0.487368 0.120000
v -0.220388 0.487368 -0.120000
v -0.220894 0.495450 0.120000
v -0.220894 0.495450 -0.120000
v -0.221738 0.503086 0.120000
v -0.221738 0.503086 -0.120000
v -0.222919 0.510275 0.120000
v -0.222919 0.510275 -0.120000
v -0.224437 0.517018 0.120000
v -0.224437 0.517018 -0.120000
v -0.226293 0.523315 0.120000
v -0.226293 0.523315 -0.120000
v -0.228486 0.529166 0.120000
v -0.228486 0.529166 -0.120000
v -0.231017 0.534570 0.120000
v -0.231017 0.534570 -0.120000
v -0.233885 0.539528 0.120000
v -0.233885 0.539528 -0.120000
v -0.237091 0.544039 0.120000
v -0.237091 0.544039 -0.120000
v -0.240634 0.548105 0.120000
v -0.240634 0.548105 -0.120000
v -0.244514 0.551724 0.120000
v -0.244514 0.551724 -0.120000
v -0.248699 0.554979 0.120000
v -0.248699 0.554979 -0.120000
v -0.253157 0.557950 0.120000
v -0.253157 0.557950 -0.120000
v -0.257886 0.560639 0.120000
v -0.257886 0.560639 -0.120000
v -0.262888 0.563044 0.120000
v -0.262888 0.563044 -0.120000
v -0.268161 0.565167 0.120000
v -0.268161 0.565167 -0.120000
v -0.273707 0.567006 0.120000
v -0.273707 0.567006 -0.120000
v -0.279525 0.568563 0.120000
v -0.279525 0.568563 -0.120000
v -0.285615 0.569836 0.120000
v -0.285615 0.569836 -0.120000
v -0.291977 0.570827 0.120000
v -0.291977 0.570827 -0.120000
v -0.298611 0.571534 0.120000
v -0.298611 0.571534 -0.120000
v -0.305517 0.571959 0.120000
v -0.305517 0.571959 -0.120000
v -0.312696 0.572100 0.120000
v -0.312696 0.572100 -0.120000
v -0.397335 0.572100 0.120000
v -0.397335 0.572100 -0.120000
v -0.397335 0.514890 0.120000
v -0.397335 0.514890 -0.120000
v -0.324451 0.514890 0.120000
v -0.324451 0.514890 -0.120000
v -0.320514 0.514825 0.120000
v -0.320514 0.514825 -0.120000
v -0.316799 0.514629 0.120000
v -0.316799 0.514629 -0.120000
v -0.313308 0.514302 0.120000
v -0.313308 0.514302 -0.120000
v -0.310040 0.513845 0.120000
v -0.310040 0.513845 -0.120000
v -0.306995 0.513258 0.120000
v -0.306995 0.513258 -0.120000
v -0.304173 0.512539 0.120000
v -0.304173 0.512539 -0.120000
v -0.301574 0.511690 0.120000
v -0.301574 0.511690 -0.120000
v -0.299199 0.510711 0.120000
v -0.299199 0.510711 -0.120000
v -0.297046 0.509600 0.120000
v -0.297046 0.509600 -0.120000
v -0.295117 0.508359 0.120000
v -0.295117 0.508359 -0.120000
v -0.293411 0.506988 0.120000
v -0.293411 0.506988 -0.120000
v -0.291928 0.505486 0.120000
v -0.291928 0.505486 -0.120000
v -0.290614 0.503777 0.120000
v -0.290614 0.503777 -0.120000
v -0.289414 0.501785 0.120000
v -0.289414 0.501785 -0.120000
v -0.288328 0.499510 0.120000
v -0.288328 0.499510 -0.120000
v -0.287356 0.496952 0.120000
v -0.287356 0.496952 -0.120000
v -0.286499 0.494111 0.120000
v -0.286499 0.494111 -0.120000
v -0.285756 0.490987 0.120000
v -0.285756 0.490987 -0.120000
v -0.285128 0.487581 0.120000
v -0.285128 0.487581 -0.120000
v -0.284613 0.483891 0.120000
v -0.284613 0.483891 -0.120000
v -0.284213 0.479918 0.120000
v -0.284213 0.479918 -0.120000
v -0.283928 0.475662 0.120000
v -0.283928 0.475662 -0.120000
v -0.283756 0.471123 0.120000
v -0.283756 0.471123 -0.120000
v -0.283699 0.466301 0.120000
v -0.283699 0.466301 -0.120000
v -0.283699 0.415360 0.120000
v -0.283699 0.415360 -0.120000
v -0.434953 0.415360 0.120000
v -0.434953 0.415360 -0.120000
v -0.434953 0.358150 0.120000
v -0.434953 0.358150 -0.120000
v -0.284483 0.358150 0.120000
v -0.284483 0.358150 -0.120000
vn 0.0000 0.0000 -1.0000
vn 0.0000 0.0000 1.0000
vn 0.7071 -0.7071 0.0000
vn -0.7071 -0.7071 0.0000
vn 0.7071 0.7071 0.0000
vn 0.9999 0.0099 0.0000
vn 0.9991 0.0411 0.0000
vn 0.9963 0.0862 0.0000
vn 0.9907 0.1360 0.0000
vn 0.9816 0.1910 0.0000
vn 0.9679 0.2513 0.0000
vn 0.9484 0.3171 0.0000
vn 0.9217 0.3879 0.0000
vn 0.8864 0.4628 0.0000
vn 0.9217 0.3878 0.0000
vn 0.8413 0.5405 0.0000
vn 0.7855 0.6189 0.0000
vn 0.7189 0.6951 0.0000
vn 0.6486 0.7611 0.0000
vn 0.5847 0.8112 0.0000
vn 0.5248 0.8512 0.0000
vn 0.5846 0.8112 0.0000
vn 0.4641 0.8858 0.0000
vn 0.4036 0.9149 0.0000
vn 0.3442 0.9389 0.0000
vn 0.2868 0.9580 0.0000
vn 0.2316 0.9728 0.0000
vn 0.1793 0.9838 0.0000
vn 0.1299 0.9915 0.0000
vn 0.0837 0.9965 0.0000
vn 0.0405 0.9992 0.0000
vn 0.0098 0.9999 0.0000
vn -0.7071 0.7071 0.0000
vn -0.0083 -0.9999 0.0000
vn -0.0346 -0.9994 0.0000
vn -0.0729 -0.9973 0.0000
vn -0.1158 -0.9933 0.0000
vn -0.1641 -0.9864 0.0000
vn -0.2182 -0.9759 0.0000
vn -0.2788 -0.9603 0.0000
vn -0.3461 -0.9382 0.0000
vn -0.4202 -0.9074 0.0000
vn -0.5002 -0.8659 0.0000
vn -0.5845 -0.8114 0.0000
vn -0.6702 -0.7422 0.0000
vn -0.7536 -0.6573 0.0000
vn -0.8259 -0.5637 0.0000
vn -0.8806 -0.4739 0.0000
vn -0.9194 -0.3932 0.0000
vn -0.9467 -0.3221 0.0000
vn -0.9655 -0.2602 0.0000
vn -0.9467 -0.3222 0.0000
vn -0.9785 -0.2064 0.0000
vn -0.9872 -0.1598 0.0000
vn -0.9784 -0.2065 0.0000
vn -0.9929 -0.1191 0.0000
vn -0.9965 -0.0836 0.0000
vn -0.9986 -0.0523 0.0000
vn -0.9997 -0.0248 0.0000
vn -1.0000 -0.0059 0.0000
s off
f 30//1 32//1 31//1
f 30//1 33//1 32//1
f 29//1 33//1 30//1
f 28//1 33//1 29//1
f 27//1 33//1 28//1
f 26//1 33//1 27//1
f 25//1 33//1 26//1
f 24//1 33//1 25//1
f 23//1 33//1 24//1
f 22//1 33//1 23//1
f 21//1 33//1 22//1
f 20//1 33//1 21//1
f 19//1 33//1 20//1
f 18//1 33//1 19//1
f 17//1 33//1 18//1
f 16//1 33//1 17//1
f 15//1 33//1 16//1
f 14//1 33//1 15//1
f 13//1 33//1 14//1
f 12//1 33//1 13//1
f 11//1 35//1 12//1
f 35//1 34//1 12//1
f 34//1 33//1 12//1
f 11//1 36//1 35//1
f 11//1 37//1 36//1
f 11//1 38//1 37//1
f 11//1 39//1 38//1
f 11//1 40//1 39//1
f 11//1 41//1 40//1
f 11//1 42//1 41//1
f 11//1 43//1 42//1
f 10//1 43//1 11//1
f 10//1 44//1 43//1
f 10//1 45//1 44//1
f 10//1 46//1 45//1
f 10//1 47//1 46//1
f 10//1 48//1 47//1
f 9//1 48//1 10//1
f 9//1 49//1 48//1
f 9//1 50//1 49//1
f 9//1 51//1 50//1
f 8//1 51//1 9//1
f 8//1 52//1 51//1
f 8//1 53//1 52//1
f 8//1 54//1 53//1
f 7//1 54//1 8//1
f 7//1 55//1 54//1
f 7//1 56//1 55//1
f 6//1 56//1 7//1
f 6//1 57//1 56//1
f 6//1 58//1 57//1
f 6//1 59//1 58//1
f 4//1 6//1 5//1
f 4//1 59//1 6//1
f 4//1 60//1 59//1
f 4//1 61//1 60//1
f 3//2 61//2 4//2
f 2//1 62//1 3//1
f 62//2 61//2 3//2
f 2//1 1//1 62//1
f 94//2 92//2 93//2
f 95//2 92//2 94//2
f 95//2 91//2 92//2
f 95//2 90//2 91//2
f 95//2 89//2 90//2
f 95//2 88//2 89//2
f 95//2 87//2 88//2
f 95//2 86//2 87//2
f 95//2 85//2 86//2
f 95//2 84//2 85//2
f 95//2 83//2 84//2
f 95//2 82//2 83//2
f 95//2 81//2 82//2
f 95//2 80//2 81//2
f 95//2 79//2 80//2
f 95//2 78//2 79//2
f 95//2 77//2 78//2
f 95//2 76//2 77//2
f 95//2 75//2 76//2
f 95//2 74//2 75//2
f 97//2 73//2 74//2
f 96//2 97//2 74//2
f 95//2 96//2 74//2
f 98//2 73//2 97//2
f 99//2 73//2 98//2
f 100//2 73//2 99//2
f 101//2 73//2 100//2
f 102//2 73//2 101//2
f 103//2 73//2 102//2
f 104//2 73//2 103//2
f 105//2 73//2 104//2
f 105//2 72//2 73//2
f 106//2 72//2 105//2
f 107//2 72//2 106//2
f 108//2 72//2 107//2
f 109//2 72//2 108//2
f 110//2 72//2 109//2
f 110//2 71//2 72//2
f 111//2 71//2 110//2
f 112//2 71//2 111//2
f 113//2 71//2 112//2
f 113//2 70//2 71//2
f 114//2 70//2 113//2
f 115//2 70//2 114//2
f 116//2 70//2 115//2
f 116//2 69//2 70//2
f 117//2 69//2 116//2
f 118//2 69//2 117//2
f 118//2 68//2 69//2
f 119//2 68//2 118//2
f 120//2 68//2 119//2
f 121//2 68//2 120//2
f 68//2 66//2 67//2
f 121//2 66//2 68//2
f 122//2 66//2 121//2
f 123//2 66//2 122//2
f 123//2 65//2 66//2
f 124//2 64//2 65//2
f 123//1 124//1 65//1
f 63//2 64//2 124//2
s 1
f 128//3 125//4 126//4
f 130//3 127//3 128//3
f 132//3 129//3 130//3
f 134//5 131//3 132//3
f 136//5 133//5 134//5
f 138//6 135//5 136//5
f 140//7 137//6 138//6
f 142//8 139//7 140//7
f 144//9 141//8 142//8
f 146//10 143//9 144//9
f 148//11 145//10 146//10
f 150//12 147//11 148//11
f 152//13 149//12 150//12
f 154//14 151//15 152//13
f 156//16 153//14 154//14
f 158//17 155//16 156//16
f 160//18 157//17 158//17
f 162//19 159//18 160//18
f 164//20 161//19 162//19
f 166//21 163//22 164//20
f 168//23 165//21 166//21
f 170//24 167//23 168//23
f 172//25 169//24 170//24
f 174//26 171//25 172//25
f 176//27 173//26 174//26
f 178//28 175//27 176//27
f 180//29 177//28 178//28
f 182//30 179//29 180//29
f 184//31 181//30 182//30
f 186//32 183//31 184//31
f 188//33 185//32 186//32
f 190//4 187//33 188//33
f 192//34 189//4 190//4
f 194//35 191//34 192//34
f 196//36 193//35 194//35
f 198//37 195//36 196//36
f 200//38 197//37 198//37
f 202//39 199//38 200//38
f 204//40 201//39 202//39
f 206//41 203//40 204//40
f 208//42 205//41 206//41
f 210//43 207//42 208//42
f 212//44 209//43 210//43
f 214//45 211//44 212//44
f 216//46 213//45 214//45
f 218//47 215//46 216//46
f 220//48 217//47 218//47
f 222//49 219//48 220//48
f 224//50 221//49 222//49
f 226//51 223//52 224//50
f 228//53 225//51 226//51
f 230//54 227//55 228//53
f 232//56 229//54 230//54
f 234//57 231//56 232//56
f 236//58 233//57 234//57
f 238//59 235//58 236//58
f 240//60 237//59 238//59
f 242//33 239//60 240//60
f 244//33 241//33 242//33
f 246//4 243//33 244//33
f 248//4 245//4 246//4
f 126//4 247//4 248//4
f 128//3 127//3 125//4
f 130//3 129//3 127//3
f 132//3 131//3 129//3
f 134//5 133//5 131//3
f 136//5 135//5 133//5
f 138//6 137//6 135//5
f 140//7 139//7 137//6
f 142//8 141//8 139//7
f 144//9 143//9 141//8
f 146//10 145//10 143//9
f 148//11 147//11 145//10
f 150//12 149//12 147//11
f 152//13 151//15 149//12
f 154//14 153//14 151//15
f 156//16 155//16 153//14
f 158//17 157//17 155//16
f 160//18 159//18 157//17
f 162//19 161//19 159//18
f 164//20 163//22 161//19
f 166//21 165//21 163//22
f 168//23 167//23 165//21
f 170//24 169//24 167//23
f 172//25 171//25 169//24
f 174//26 173//26 171//25
f 176//27 175//27 173//26
f 178//28 177//28 175//27
f 180//29 179//29 177//28
f 182//30 181//30 179//29
f 184//31 183//31 181//30
f 186//32 185//32 183//31
f 188//33 187//33 185//32
f 190//4 189//4 187//33
f 192//34 191//34 189//4
f 194//35 193//35 191//34
f 196//36 195//36 193//35
f 198//37 197//37 195//36
f 200//38 199//38 197//37
f 202//39 201//39 199//38
f 204//40 203//40 201//39
f 206//41 205//41 203//40
f 208//42 207//42 205//41
f 210//43 209//43 207//42
f 212//44 211//44 209//43
f 214//45 213//45 211//44
f 216//46 215//46 213//45
f 218//47 217//47 215//46
f 220//48 219//48 217//47
f 222//49 221//49 219//48
f 224//50 223//52 221//49
f 226//51 225//51 223//52
f 228//53 227//55 225//51
f 230//54 229//54 227//55
f 232//56 231//56 229//54
f 234//57 233//57 231//56
f 236//58 235//58 233//57
f 238//59 237//59 235//58
f 240//60 239//60 237//59
f 242//33 241//33 239//60
f 244//33 243//33 241//33
f 246//4 245//4 243//33
f 248//4 247//4 245//4
f 126//4 125//4 247//4
