# Blender v2.78 (sub 0) OBJ File: 'corewar.blend'
# www.blender.org
o Text_Text.002
v -0.158307 0.000000 -0.120000
v -0.094044 0.000000 -0.120000
v -0.094044 0.572100 -0.120000
v -0.158307 0.572100 -0.120000
v -0.158307 0.373824 -0.120000
v -0.159875 0.373824 -0.120000
v -0.162860 0.377683 -0.120000
v -0.166068 0.381422 -0.120000
v -0.169499 0.385041 -0.120000
v -0.173154 0.388541 -0.120000
v -0.177032 0.391920 -0.120000
v -0.181132 0.395180 -0.120000
v -0.185456 0.398320 -0.120000
v -0.190003 0.401341 -0.120000
v -0.194774 0.404242 -0.120000
v -0.199767 0.407023 -0.120000
v -0.204984 0.409684 -0.120000
v -0.210423 0.412226 -0.120000
v -0.216004 0.414604 -0.120000
v -0.221645 0.416775 -0.120000
v -0.227346 0.418740 -0.120000
v -0.233107 0.420498 -0.120000
v -0.238928 0.422049 -0.120000
v -0.244808 0.423393 -0.120000
v -0.250748 0.424531 -0.120000
v -0.256748 0.425462 -0.120000
v -0.262809 0.426185 -0.120000
v -0.268928 0.426702 -0.120000
v -0.275108 0.427013 -0.120000
v -0.281348 0.427116 -0.120000
v -0.292273 0.426836 -0.120000
v -0.302845 0.425995 -0.120000
v -0.313063 0.424593 -0.120000
v -0.322928 0.422632 -0.120000
v -0.332438 0.420109 -0.120000
v -0.341595 0.417026 -0.120000
v -0.350398 0.413382 -0.120000
v -0.358847 0.409178 -0.120000
v -0.366943 0.404413 -0.120000
v -0.374684 0.399088 -0.120000
v -0.382072 0.393202 -0.120000
v -0.389107 0.386755 -0.120000
v -0.395678 0.379787 -0.120000
v -0.401678 0.372333 -0.120000
v -0.407107 0.364396 -0.120000
v -0.411964 0.355974 -0.120000
v -0.416250 0.347067 -0.120000
v -0.419965 0.337676 -0.120000
v -0.423108 0.327801 -0.120000
v -0.425679 0.317442 -0.120000
v -0.427679 0.306598 -0.120000
v -0.429108 0.295270 -0.120000
v -0.429965 0.283457 -0.120000
v -0.430251 0.271160 -0.120000
v -0.430251 0.000000 -0.120000
v -0.365987 0.000000 -0.120000
v -0.365987 0.253918 -0.120000
v -0.365318 0.272194 -0.120000
v -0.363310 0.288880 -0.120000
v -0.359963 0.303977 -0.120000
v -0.355277 0.317485 -0.120000
v -0.349252 0.329404 -0.120000
v -0.341889 0.339734 -0.120000
v -0.333186 0.348474 -0.120000
v -0.323145 0.355625 -0.120000
v -0.311765 0.361187 -0.120000
v -0.299046 0.365160 -0.120000
v -0.284989 0.367544 -0.120000
v -0.269592 0.368339 -0.120000
v -0.261247 0.368132 -0.120000
v -0.253189 0.367511 -0.120000
v -0.245420 0.366477 -0.120000
v -0.237940 0.365030 -0.120000
v -0.230748 0.363168 -0.120000
v -0.223844 0.360893 -0.120000
v -0.217229 0.358205 -0.120000
v -0.210902 0.355103 -0.120000
v -0.204864 0.351587 -0.120000
v -0.199114 0.347658 -0.120000
v -0.193653 0.343315 -0.120000
v -0.188480 0.338558 -0.120000
v -0.183660 0.333469 -0.120000
v -0.179260 0.328130 -0.120000
v -0.175279 0.322541 -0.120000
v -0.171717 0.316702 -0.120000
v -0.168574 0.310612 -0.120000
v -0.165850 0.304271 -0.120000
v -0.163545 0.297680 -0.120000
v -0.161660 0.290839 -0.120000
v -0.160193 0.283748 -0.120000
v -0.159145 0.276406 -0.120000
v -0.158517 0.268814 -0.120000
v -0.158307 0.260972 -0.120000
v -0.158307 0.000000 0.120000
v -0.094044 0.000000 0.120000
v -0.094044 0.572100 0.120000
v -0.158307 0.572100 0.120000
v -0.158307 0.373824 0.120000
v -0.159875 0.373824 0.120000
v -0.162860 0.377683 0.120000
v -0.166068 0.381422 0.120000
v -0.169499 0.385041 0.120000
v -0.173154 0.388541 0.120000
v -0.177032 0.391920 0.120000
v -0.181132 0.395180 0.120000
v -0.185456 0.398320 0.120000
v -0.190003 0.401341 0.120000
v -0.194774 0.404242 0.120000
v -0.199767 0.407023 0.120000
v -0.204984 0.409684 0.120000
v -0.210423 0.412226 0.120000
v -0.216004 0.414604 0.120000
v -0.221645 0.416775 0.120000
v -0.227346 0.418740 0.120000
v -0.233107 0.420498 0.120000
v -0.238928 0.422049 0.120000
v -0.244808 0.423393 0.120000
v -0.250748 0.424531 0.120000
v -0.256748 0.425462 0.120000
v -0.262809 0.426185 0.120000
v -0.268928 0.426702 0.120000
v -0.275108 0.427013 0.120000
v -0.281348 0.427116 0.120000
v -0.292273 0.426836 0.120000
v -0.302845 0.425995 0.120000
v -0.313063 0.424593 0.120000
v -0.322928 0.422632 0.120000
v -0.332438 0.420109 0.120000
v -0.341595 0.417026 0.120000
v -0.350398 0.413382 0.120000
v -0.358847 0.409178 0.120000
v -0.366943 0.404413 0.120000
v -0.374684 0.399088 0.120000
v -0.382072 0.393202 0.120000
v -0.389107 0.386755 0.120000
v -0.395678 0.379787 0.120000
v -0.401678 0.372333 0.120000
v -0.407107 0.364396 0.120000
v -0.411964 0.355974 0.120000
v -0.416250 0.347067 0.120000
v -0.419965 0.337676 0.120000
v -0.423108 0.327801 0.120000
v -0.425679 0.317442 0.120000
v -0.427679 0.306598 0.120000
v -0.429108 0.295270 0.120000
v -0.429965 0.283457 0.120000
v -0.430251 0.271160 0.120000
v -0.430251 0.000000 0.120000
v -0.365987 0.000000 0.120000
v -0.365987 0.253918 0.120000
v -0.365318 0.272194 0.120000
v -0.363310 0.288880 0.120000
v -0.359963 0.303977 0.120000
v -0.355277 0.317485 0.120000
v -0.349252 0.329404 0.120000
v -0.341889 0.339734 0.120000
v -0.333186 0.348474 0.120000
v -0.323145 0.355625 0.120000
v -0.311765 0.361187 0.120000
v -0.299046 0.365160 0.120000
v -0.284989 0.367544 0.120000
v -0.269592 0.368339 0.120000
v -0.261247 0.368132 0.120000
v -0.253189 0.367511 0.120000
v -0.245420 0.366477 0.120000
v -0.237940 0.365030 0.120000
v -0.230748 0.363168 0.120000
v -0.223844 0.360893 0.120000
v -0.217229 0.358205 0.120000
v -0.210902 0.355103 0.120000
v -0.204864 0.351587 0.120000
v -0.199114 0.347658 0.120000
v -0.193653 0.343315 0.120000
v -0.188480 0.338558 0.120000
v -0.183660 0.333469 0.120000
v -0.179260 0.328130 0.120000
v -0.175279 0.322541 0.120000
v -0.171717 0.316702 0.120000
v -0.168574 0.310612 0.120000
v -0.165850 0.304271 0.120000
v -0.163545 0.297680 0.120000
v -0.161660 0.290839 0.120000
v -0.160193 0.283748 0.120000
v -0.159145 0.276406 0.120000
v -0.158517 0.268814 0.120000
v -0.158307 0.260972 0.120000
v -0.158307 0.000000 0.120000
v -0.158307 0.000000 -0.120000
v -0.094044 0.000000 0.120000
v -0.094044 0.000000 -0.120000
v -0.094044 0.572100 0.120000
v -0.094044 0.572100 -0.120000
v -0.158307 0.572100 0.120000
v -0.158307 0.572100 -0.120000
v -0.158307 0.373824 0.120000
v -0.158307 0.373824 -0.120000
v -0.159875 0.373824 0.120000
v -0.159875 0.373824 -0.120000
v -0.162860 0.377683 0.120000
v -0.162860 0.377683 -0.120000
v -0.166068 0.381422 0.120000
v -0.166068 0.381422 -0.120000
v -0.169499 0.385041 0.120000
v -0.169499 0.385041 -0.120000
v -0.173154 0.388541 0.120000
v -0.173154 0.388541 -0.120000
v -0.177032 0.391920 0.120000
v -0.177032 0.391920 -0.120000
v -0.181132 0.395180 0.120000
v -0.181132 0.395180 -0.120000
v -0.185456 0.398320 0.120000
v -0.185456 0.398320 -0.120000
v -0.190003 0.401341 0.120000
v -0.190003 0.401341 -0.120000
v -0.194774 0.404242 0.120000
v -0.194774 0.404242 -0.120000
v -0.199767 0.407023 0.120000
v -0.199767 0.407023 -0.120000
v -0.204984 0.409684 0.120000
v -0.204984 0.409684 -0.120000
v -0.210423 0.412226 0.120000
v -0.210423 0.412226 -0.120000
v -0.216004 0.414604 0.120000
v -0.216004 0.414604 -0.120000
v -0.221645 0.416775 0.120000
v -0.221645 0.416775 -0.120000
v -0.227346 0.418740 0.120000
v -0.227346 0.418740 -0.120000
v -0.233107 0.420498 0.120000
v -0.233107 0.420498 -0.120000
v -0.238928 0.422049 0.120000
v -0.238928 0.422049 -0.120000
v -0.244808 0.423393 0.120000
v -0.244808 0.423393 -0.120000
v -0.250748 0.424531 0.120000
v -0.250748 0.424531 -0.120000
v -0.256748 0.425462 0.120000
v -0.256748 0.425462 -0.120000
v -0.262809 0.426185 0.120000
v -0.262809 0.426185 -0.120000
v -0.268928 0.426702 0.120000
v -0.268928 0.426702 -0.120000
v -0.275108 0.427013 0.120000
v -0.275108 0.427013 -0.120000
v -0.281348 0.427116 0.120000
v -0.281348 0.427116 -0.120000
v -0.292273 0.426836 0.120000
v -0.292273 0.426836 -0.120000
v -0.302845 0.425995 0.120000
v -0.302845 0.425995 -0.120000
v -0.313063 0.424593 0.120000
v -0.313063 0.424593 -0.120000
v -0.322928 0.422632 0.120000
v -0.322928 0.422632 -0.120000
v -0.332438 0.420109 0.120000
v -0.332438 0.420109 -0.120000
v -0.341595 0.417026 0.120000
v -0.341595 0.417026 -0.120000
v -0.350398 0.413382 0.120000
v -0.350398 0.413382 -0.120000
v -0.358847 0.409178 0.120000
v -0.358847 0.409178 -0.120000
v -0.366943 0.404413 0.120000
v -0.366943 0.404413 -0.120000
v -0.374684 0.399088 0.120000
v -0.374684 0.399088 -0.120000
v -0.382072 0.393202 0.120000
v -0.382072 0.393202 -0.120000
v -0.389107 0.386755 0.120000
v -0.389107 0.386755 -0.120000
v -0.395678 0.379787 0.120000
v -0.395678 0.379787 -0.120000
v -0.401678 0.372333 0.120000
v -0.401678 0.372333 -0.120000
v -0.407107 0.364396 0.120000
v -0.407107 0.364396 -0.120000
v -0.411964 0.355974 0.120000
v -0.411964 0.355974 -0.120000
v -0.416250 0.347067 0.120000
v -0.416250 0.347067 -0.120000
v -0.419965 0.337676 0.120000
v -0.419965 0.337676 -0.120000
v -0.423108 0.327801 0.120000
v -0.423108 0.327801 -0.120000
v -0.425679 0.317442 0.120000
v -0.425679 0.317442 -0.120000
v -0.427679 0.306598 0.120000
v -0.427679 0.306598 -0.120000
v -0.429108 0.295270 0.120000
v -0.429108 0.295270 -0.120000
v -0.429965 0.283457 0.120000
v -0.429965 0.283457 -0.120000
v -0.430251 0.271160 0.120000
v -0.430251 0.271160 -0.120000
v -0.430251 0.000000 0.120000
v -0.430251 0.000000 -0.120000
v -0.365987 0.000000 0.120000
v -0.365987 0.000000 -0.120000
v -0.365987 0.253918 0.120000
v -0.365987 0.253918 -0.120000
v -0.365318 0.272194 0.120000
v -0.365318 0.272194 -0.120000
v -0.363310 0.288880 0.120000
v -0.363310 0.288880 -0.120000
v -0.359963 0.303977 0.120000
v -0.359963 0.303977 -0.120000
v -0.355277 0.317485 0.120000
v -0.355277 0.317485 -0.120000
v -0.349252 0.329404 0.120000
v -0.349252 0.329404 -0.120000
v -0.341889 0.339734 0.120000
v -0.341889 0.339734 -0.120000
v -0.333186 0.348474 0.120000
v -0.333186 0.348474 -0.120000
v -0.323145 0.355625 0.120000
v -0.323145 0.355625 -0.120000
v -0.311765 0.361187 0.120000
v -0.311765 0.361187 -0.120000
v -0.299046 0.365160 0.120000
v -0.299046 0.365160 -0.120000
v -0.284989 0.367544 0.120000
v -0.284989 0.367544 -0.120000
v -0.269592 0.368339 0.120000
v -0.269592 0.368339 -0.120000
v -0.261247 0.368132 0.120000
v -0.261247 0.368132 -0.120000
v -0.253189 0.367511 0.120000
v -0.253189 0.367511 -0.120000
v -0.245420 0.366477 0.120000
v -0.245420 0.366477 -0.120000
v -0.237940 0.365030 0.120000
v -0.237940 0.365030 -0.120000
v -0.230748 0.363168 0.120000
v -0.230748 0.363168 -0.120000
v -0.223844 0.360893 0.120000
v -0.223844 0.360893 -0.120000
v -0.217229 0.358205 0.120000
v -0.217229 0.358205 -0.120000
v -0.210902 0.355103 0.120000
v -0.210902 0.355103 -0.120000
v -0.204864 0.351587 0.120000
v -0.204864 0.351587 -0.120000
v -0.199114 0.347658 0.120000
v -0.199114 0.347658 -0.120000
v -0.193653 0.343315 0.120000
v -0.193653 0.343315 -0.120000
v -0.188480 0.338558 0.120000
v -0.188480 0.338558 -0.120000
v -0.183660 0.333469 0.120000
v -0.183660 0.333469 -0.120000
v -0.179260 0.328130 0.120000
v -0.179260 0.328130 -0.120000
v -0.175279 0.322541 0.120000
v -0.175279 0.322541 -0.120000
v -0.171717 0.316702 0.120000
v -0.171717 0.316702 -0.120000
v -0.168574 0.310612 0.120000
v -0.168574 0.310612 -0.120000
v -0.165850 0.304271 0.120000
v -0.165850 0.304271 -0.120000
v -0.163545 0.297680 0.120000
v -0.163545 0.297680 -0.120000
v -0.161660 0.290839 0.120000
v -0.161660 0.290839 -0.120000
v -0.160193 0.283748 0.120000
v -0.160193 0.283748 -0.120000
v -0.159145 0.276406 0.120000
v -0.159145 0.276406 -0.120000
v -0.158517 0.268814 0.120000
v -0.158517 0.268814 -0.120000
v -0.158307 0.260972 0.120000
v -0.158307 0.260972 -0.120000
vn 0.0000 0.0000 -1.0000
vn 0.0000 0.0000 1.0000
vn 0.7071 -0.7071 0.0000
vn -0.7071 -0.7071 0.0000
vn 0.7071 0.7071 0.0000
vn -0.7071 0.7071 0.0000
vn 0.4405 0.8977 0.0000
vn 0.7752 0.6317 0.0000
vn 0.7425 0.6698 0.0000
vn 0.7088 0.7053 0.0000
vn 0.6745 0.7382 0.0000
vn 0.6398 0.7685 0.0000
vn 0.6051 0.7961 0.0000
vn 0.5706 0.8212 0.0000
vn 0.5365 0.8438 0.0000
vn 0.5032 0.8642 0.0000
vn 0.4706 0.8824 0.0000
vn 0.4389 0.8985 0.0000
vn 0.4077 0.9131 0.0000
vn 0.3757 0.9267 0.0000
vn 0.3426 0.9395 0.0000
vn 0.3089 0.9511 0.0000
vn 0.2747 0.9615 0.0000
vn 0.2402 0.9707 0.0000
vn 0.2055 0.9786 0.0000
vn 0.1707 0.9853 0.0000
vn 0.1359 0.9907 0.0000
vn 0.1014 0.9948 0.0000
vn 0.0671 0.9977 0.0000
vn 0.0334 0.9994 0.0000
vn -0.0045 1.0000 0.0000
vn -0.0525 0.9986 0.0000
vn -0.1076 0.9942 0.0000
vn -0.1655 0.9862 0.0000
vn -0.2258 0.9742 0.0000
vn -0.2879 0.9576 0.0000
vn -0.3510 0.9364 0.0000
vn -0.4142 0.9102 0.0000
vn -0.4766 0.8791 0.0000
vn -0.5373 0.8433 0.0000
vn -0.5953 0.8035 0.0000
vn -0.6497 0.7601 0.0000
vn -0.7020 0.7121 0.0000
vn -0.7538 0.6571 0.0000
vn -0.8028 0.5962 0.0000
vn -0.8464 0.5324 0.0000
vn -0.8843 0.4669 0.0000
vn -0.9161 0.4010 0.0000
vn -0.9420 0.3357 0.0000
vn -0.9622 0.2722 0.0000
vn -0.9419 0.3357 0.0000
vn -0.9774 0.2112 0.0000
vn -0.9882 0.1533 0.0000
vn -0.9951 0.0988 0.0000
vn -0.9988 0.0478 0.0000
vn -0.9999 0.0116 0.0000
vn 0.9998 -0.0183 0.0000
vn 0.9969 -0.0781 0.0000
vn 0.9857 -0.1682 0.0000
vn 0.9621 -0.2725 0.0000
vn 0.9207 -0.3903 0.0000
vn 0.8558 -0.5173 0.0000
vn 0.7640 -0.6452 0.0000
vn 0.6467 -0.7627 0.0000
vn 0.5113 -0.8594 0.0000
vn 0.3697 -0.9291 0.0000
vn 0.2332 -0.9724 0.0000
vn 0.1095 -0.9940 0.0000
vn 0.0134 -0.9999 0.0000
vn -0.0508 -0.9987 0.0000
vn -0.1044 -0.9945 0.0000
vn -0.1610 -0.9869 0.0000
vn -0.2204 -0.9754 0.0000
vn -0.2819 -0.9594 0.0000
vn -0.3449 -0.9386 0.0000
vn -0.4086 -0.9127 0.0000
vn -0.4720 -0.8816 0.0000
vn -0.5340 -0.8455 0.0000
vn -0.5937 -0.8047 0.0000
vn -0.6500 -0.7599 0.0000
vn -0.7019 -0.7123 0.0000
vn -0.7493 -0.6622 0.0000
vn -0.7936 -0.6084 0.0000
vn -0.8346 -0.5508 0.0000
vn -0.8717 -0.4900 0.0000
vn -0.9043 -0.4269 0.0000
vn -0.9319 -0.3626 0.0000
vn -0.9545 -0.2981 0.0000
vn -0.9722 -0.2343 0.0000
vn -0.9851 -0.1720 0.0000
vn -0.9937 -0.1119 0.0000
vn -0.9985 -0.0546 0.0000
vn -0.9999 -0.0133 0.0000
s off
f 2//1 4//1 3//1
f 2//1 5//1 4//1
f 29//1 31//1 30//1
f 28//1 31//1 29//1
f 28//1 32//1 31//1
f 27//1 32//1 28//1
f 26//1 32//1 27//1
f 26//1 33//1 32//1
f 25//1 33//1 26//1
f 25//1 34//1 33//1
f 24//1 34//1 25//1
f 23//1 34//1 24//1
f 23//1 35//1 34//1
f 22//1 35//1 23//1
f 21//1 35//1 22//1
f 21//1 36//1 35//1
f 20//1 36//1 21//1
f 20//1 37//1 36//1
f 19//1 37//1 20//1
f 18//1 37//1 19//1
f 18//1 38//1 37//1
f 17//1 38//1 18//1
f 16//1 38//1 17//1
f 16//1 39//1 38//1
f 15//1 39//1 16//1
f 15//1 40//1 39//1
f 14//1 40//1 15//1
f 13//1 40//1 14//1
f 13//1 41//1 40//1
f 12//1 41//1 13//1
f 11//1 41//1 12//1
f 11//1 42//1 41//1
f 10//1 42//1 11//1
f 9//1 42//1 10//1
f 9//1 43//1 42//1
f 8//1 43//1 9//1
f 7//1 43//1 8//1
f 7//1 44//1 43//1
f 6//1 44//1 7//1
f 2//1 6//1 5//1
f 2//1 89//1 6//1
f 89//1 88//1 6//1
f 88//1 87//1 6//1
f 87//1 86//1 6//1
f 86//1 85//1 6//1
f 85//1 84//1 6//1
f 84//1 83//1 6//1
f 83//1 82//1 6//1
f 82//1 81//1 6//1
f 81//1 80//1 6//1
f 80//1 79//1 6//1
f 79//1 78//1 6//1
f 78//1 77//1 6//1
f 77//1 76//1 6//1
f 76//1 75//1 6//1
f 75//1 74//1 6//1
f 74//1 73//1 6//1
f 73//1 72//1 6//1
f 72//1 71//1 6//1
f 71//1 70//1 6//1
f 70//1 44//1 6//1
f 70//1 69//1 44//1
f 69//1 45//1 44//1
f 68//1 45//1 69//1
f 67//1 45//1 68//1
f 66//1 45//1 67//1
f 66//1 46//1 45//1
f 65//1 46//1 66//1
f 65//1 47//1 46//1
f 64//1 47//1 65//1
f 63//1 47//1 64//1
f 63//1 48//1 47//1
f 62//1 48//1 63//1
f 62//1 49//1 48//1
f 61//1 49//1 62//1
f 61//1 50//1 49//1
f 60//1 50//1 61//1
f 60//1 51//1 50//1
f 60//1 52//1 51//1
f 59//1 52//1 60//1
f 59//1 53//1 52//1
f 2//1 90//1 89//1
f 58//1 53//1 59//1
f 2//1 91//1 90//1
f 58//1 54//1 53//1
f 2//1 92//1 91//1
f 57//1 54//1 58//1
f 57//1 55//1 54//1
f 2//1 93//1 92//1
f 2//1 1//1 93//1
f 56//1 55//1 57//1
f 97//2 95//2 96//2
f 98//2 95//2 97//2
f 124//2 122//2 123//2
f 124//2 121//2 122//2
f 125//2 121//2 124//2
f 125//2 120//2 121//2
f 125//2 119//2 120//2
f 126//2 119//2 125//2
f 126//2 118//2 119//2
f 127//2 118//2 126//2
f 127//2 117//2 118//2
f 127//2 116//2 117//2
f 128//2 116//2 127//2
f 128//2 115//2 116//2
f 128//2 114//2 115//2
f 129//2 114//2 128//2
f 129//2 113//2 114//2
f 130//2 113//2 129//2
f 130//2 112//2 113//2
f 130//2 111//2 112//2
f 131//2 111//2 130//2
f 131//2 110//2 111//2
f 131//2 109//2 110//2
f 132//2 109//2 131//2
f 132//2 108//2 109//2
f 133//2 108//2 132//2
f 133//2 107//2 108//2
f 133//2 106//2 107//2
f 134//2 106//2 133//2
f 134//2 105//2 106//2
f 134//2 104//2 105//2
f 135//2 104//2 134//2
f 135//2 103//2 104//2
f 135//2 102//2 103//2
f 136//2 102//2 135//2
f 136//2 101//2 102//2
f 136//2 100//2 101//2
f 137//2 100//2 136//2
f 137//2 99//2 100//2
f 99//2 95//2 98//2
f 182//2 95//2 99//2
f 181//2 182//2 99//2
f 180//2 181//2 99//2
f 179//2 180//2 99//2
f 178//2 179//2 99//2
f 177//2 178//2 99//2
f 176//2 177//2 99//2
f 175//2 176//2 99//2
f 174//2 175//2 99//2
f 173//2 174//2 99//2
f 172//2 173//2 99//2
f 171//2 172//2 99//2
f 170//2 171//2 99//2
f 169//2 170//2 99//2
f 168//2 169//2 99//2
f 167//2 168//2 99//2
f 166//2 167//2 99//2
f 165//2 166//2 99//2
f 164//2 165//2 99//2
f 163//2 164//2 99//2
f 137//2 163//2 99//2
f 162//2 163//2 137//2
f 138//2 162//2 137//2
f 138//2 161//2 162//2
f 138//2 160//2 161//2
f 138//2 159//2 160//2
f 139//2 159//2 138//2
f 139//2 158//2 159//2
f 140//2 158//2 139//2
f 140//2 157//2 158//2
f 140//2 156//2 157//2
f 141//2 156//2 140//2
f 141//2 155//2 156//2
f 142//2 155//2 141//2
f 142//2 154//2 155//2
f 143//2 154//2 142//2
f 143//2 153//2 154//2
f 144//2 153//2 143//2
f 145//2 153//2 144//2
f 145//2 152//2 153//2
f 146//2 152//2 145//2
f 183//2 95//2 182//2
f 146//2 151//2 152//2
f 184//2 95//2 183//2
f 147//2 151//2 146//2
f 185//2 95//2 184//2
f 147//2 150//2 151//2
f 148//2 150//2 147//2
f 186//2 95//2 185//2
f 94//2 95//2 186//2
f 148//2 149//2 150//2
s 1
f 190//3 187//4 188//4
f 192//5 189//3 190//3
f 194//6 191//5 192//5
f 196//6 193//6 194//6
f 198//7 195//6 196//6
f 200//8 197//7 198//7
f 202//9 199//8 200//8
f 204//10 201//9 202//9
f 206//11 203//10 204//10
f 208//12 205//11 206//11
f 210//13 207//12 208//12
f 212//14 209//13 210//13
f 214//15 211//14 212//14
f 216//16 213//15 214//15
f 218//17 215//16 216//16
f 220//18 217//17 218//17
f 222//19 219//18 220//18
f 224//20 221//19 222//19
f 226//21 223//20 224//20
f 228//22 225//21 226//21
f 230//23 227//22 228//22
f 232//24 229//23 230//23
f 234//25 231//24 232//24
f 236//26 233//25 234//25
f 238//27 235//26 236//26
f 240//28 237//27 238//27
f 242//29 239//28 240//28
f 244//30 241//29 242//29
f 246//31 243//30 244//30
f 248//32 245//31 246//31
f 250//33 247//32 248//32
f 252//34 249//33 250//33
f 254//35 251//34 252//34
f 256//36 253//35 254//35
f 258//37 255//36 256//36
f 260//38 257//37 258//37
f 262//39 259//38 260//38
f 264//40 261//39 262//39
f 266//41 263//40 264//40
f 268//42 265//41 266//41
f 270//43 267//42 268//42
f 272//44 269//43 270//43
f 274//45 271//44 272//44
f 276//46 273//45 274//45
f 278//47 275//46 276//46
f 280//48 277//47 278//47
f 282//49 279//48 280//48
f 284//50 281//51 282//49
f 286//52 283//50 284//50
f 288//53 285//52 286//52
f 290//54 287//53 288//53
f 292//55 289//54 290//54
f 294//56 291//55 292//55
f 296//4 293//56 294//56
f 298//3 295//4 296//4
f 300//57 297//3 298//3
f 302//58 299//57 300//57
f 304//59 301//58 302//58
f 306//60 303//59 304//59
f 308//61 305//60 306//60
f 310//62 307//61 308//61
f 312//63 309//62 310//62
f 314//64 311//63 312//63
f 316//65 313//64 314//64
f 318//66 315//65 316//65
f 320//67 317//66 318//66
f 322//68 319//67 320//67
f 324//69 321//68 322//68
f 326//70 323//69 324//69
f 328//71 325//70 326//70
f 330//72 327//71 328//71
f 332//73 329//72 330//72
f 334//74 331//73 332//73
f 336//75 333//74 334//74
f 338//76 335//75 336//75
f 340//77 337//76 338//76
f 342//78 339//77 340//77
f 344//79 341//78 342//78
f 346//80 343//79 344//79
f 348//81 345//80 346//80
f 350//82 347//81 348//81
f 352//83 349//82 350//82
f 354//84 351//83 352//83
f 356//85 353//84 354//84
f 358//86 355//85 356//85
f 360//87 357//86 358//86
f 362//88 359//87 360//87
f 364//89 361//88 362//88
f 366//90 363//89 364//89
f 368//91 365//90 366//90
f 370//92 367//91 368//91
f 372//93 369//92 370//92
f 188//4 371//93 372//93
f 190//3 189//3 187//4
f 192//5 191//5 189//3
f 194//6 193//6 191//5
f 196//6 195//6 193//6
f 198//7 197//7 195//6
f 200//8 199//8 197//7
f 202//9 201//9 199//8
f 204//10 203//10 201//9
f 206//11 205//11 203//10
f 208//12 207//12 205//11
f 210//13 209//13 207//12
f 212//14 211//14 209//13
f 214//15 213//15 211//14
f 216//16 215//16 213//15
f 218//17 217//17 215//16
f 220//18 219//18 217//17
f 222//19 221//19 219//18
f 224//20 223//20 221//19
f 226//21 225//21 223//20
f 228//22 227//22 225//21
f 230//23 229//23 227//22
f 232//24 231//24 229//23
f 234//25 233//25 231//24
f 236//26 235//26 233//25
f 238//27 237//27 235//26
f 240//28 239//28 237//27
f 242//29 241//29 239//28
f 244//30 243//30 241//29
f 246//31 245//31 243//30
f 248//32 247//32 245//31
f 250//33 249//33 247//32
f 252//34 251//34 249//33
f 254//35 253//35 251//34
f 256//36 255//36 253//35
f 258//37 257//37 255//36
f 260//38 259//38 257//37
f 262//39 261//39 259//38
f 264//40 263//40 261//39
f 266//41 265//41 263//40
f 268//42 267//42 265//41
f 270//43 269//43 267//42
f 272//44 271//44 269//43
f 274//45 273//45 271//44
f 276//46 275//46 273//45
f 278//47 277//47 275//46
f 280//48 279//48 277//47
f 282//49 281//51 279//48
f 284//50 283//50 281//51
f 286//52 285//52 283//50
f 288//53 287//53 285//52
f 290//54 289//54 287//53
f 292//55 291//55 289//54
f 294//56 293//56 291//55
f 296//4 295//4 293//56
f 298//3 297//3 295//4
f 300//57 299//57 297//3
f 302//58 301//58 299//57
f 304//59 303//59 301//58
f 306//60 305//60 303//59
f 308//61 307//61 305//60
f 310//62 309//62 307//61
f 312//63 311//63 309//62
f 314//64 313//64 311//63
f 316//65 315//65 313//64
f 318//66 317//66 315//65
f 320//67 319//67 317//66
f 322//68 321//68 319//67
f 324//69 323//69 321//68
f 326//70 325//70 323//69
f 328//71 327//71 325//70
f 330//72 329//72 327//71
f 332//73 331//73 329//72
f 334//74 333//74 331//73
f 336//75 335//75 333//74
f 338//76 337//76 335//75
f 340//77 339//77 337//76
f 342//78 341//78 339//77
f 344//79 343//79 341//78
f 346//80 345//80 343//79
f 348//81 347//81 345//80
f 350//82 349//82 347//81
f 352//83 351//83 349//82
f 354//84 353//84 351//83
f 356//85 355//85 353//84
f 358//86 357//86 355//85
f 360//87 359//87 357//86
f 362//88 361//88 359//87
f 364//89 363//89 361//88
f 366//90 365//90 363//89
f 368//91 367//91 365//90
f 370//92 369//92 367//91
f 372//93 371//93 369//92
f 188//4 187//4 371//93
