# Blender v2.78 (sub 0) OBJ File: 'corewar.blend'
# www.blender.org
o Text_Text.002
v -0.311129 0.499216 -0.120000
v -0.237461 0.499216 -0.120000
v -0.237461 0.572100 -0.120000
v -0.311129 0.572100 -0.120000
v -0.242163 0.360502 -0.120000
v -0.101881 0.360502 -0.120000
v -0.101881 0.415360 -0.120000
v -0.305643 0.415360 -0.120000
v -0.305643 0.054859 -0.120000
v -0.442790 0.054859 -0.120000
v -0.442790 0.000000 -0.120000
v -0.097962 0.000000 -0.120000
v -0.097962 0.054859 -0.120000
v -0.242163 0.054859 -0.120000
v -0.311129 0.499216 0.120000
v -0.237461 0.499216 0.120000
v -0.237461 0.572100 0.120000
v -0.311129 0.572100 0.120000
v -0.242163 0.360502 0.120000
v -0.101881 0.360502 0.120000
v -0.101881 0.415360 0.120000
v -0.305643 0.415360 0.120000
v -0.305643 0.054859 0.120000
v -0.442790 0.054859 0.120000
v -0.442790 0.000000 0.120000
v -0.097962 0.000000 0.120000
v -0.097962 0.054859 0.120000
v -0.242163 0.054859 0.120000
v -0.311129 0.499216 0.120000
v -0.311129 0.499216 -0.120000
v -0.237461 0.499216 0.120000
v -0.237461 0.499216 -0.120000
v -0.237461 0.572100 0.120000
v -0.237461 0.572100 -0.120000
v -0.311129 0.572100 0.120000
v -0.311129 0.572100 -0.120000
v -0.242163 0.360502 0.120000
v -0.242163 0.360502 -0.120000
v -0.101881 0.360502 0.120000
v -0.101881 0.360502 -0.120000
v -0.101881 0.415360 0.120000
v -0.101881 0.415360 -0.120000
v -0.305643 0.415360 0.120000
v -0.305643 0.415360 -0.120000
v -0.305643 0.054859 0.120000
v -0.305643 0.054859 -0.120000
v -0.442790 0.054859 0.120000
v -0.442790 0.054859 -0.120000
v -0.442790 0.000000 0.120000
v -0.442790 0.000000 -0.120000
v -0.097962 0.000000 0.120000
v -0.097962 0.000000 -0.120000
v -0.097962 0.054859 0.120000
v -0.097962 0.054859 -0.120000
v -0.242163 0.054859 0.120000
v -0.242163 0.054859 -0.120000
vn 0.0000 0.0000 -1.0000
vn 0.0000 0.0000 1.0000
vn 0.7071 -0.7071 0.0000
vn -0.7071 -0.7071 0.0000
vn 0.7071 0.7071 0.0000
vn -0.7071 0.7071 0.0000
s off
f 6//1 8//1 7//1
f 6//1 5//1 8//1
f 5//1 9//1 8//1
f 14//1 9//1 5//1
f 12//1 14//1 13//1
f 12//1 9//1 14//1
f 12//1 10//1 9//1
f 12//1 11//1 10//1
f 2//1 4//1 3//1
f 2//1 1//1 4//1
f 22//2 20//2 21//2
f 19//2 20//2 22//2
f 23//2 19//2 22//2
f 23//2 28//2 19//2
f 28//2 26//2 27//2
f 23//2 26//2 28//2
f 24//2 26//2 23//2
f 25//2 26//2 24//2
f 18//2 16//2 17//2
f 15//2 16//2 18//2
s 1
f 32//3 29//4 30//4
f 34//5 31//3 32//3
f 36//6 33//5 34//5
f 30//4 35//6 36//6
f 40//3 37//3 38//3
f 42//5 39//3 40//3
f 44//6 41//5 42//5
f 46//6 43//6 44//6
f 48//6 45//6 46//6
f 50//4 47//6 48//6
f 52//3 49//4 50//4
f 54//5 51//3 52//3
f 56//5 53//5 54//5
f 38//3 55//5 56//5
f 32//3 31//3 29//4
f 34//5 33//5 31//3
f 36//6 35//6 33//5
f 30//4 29//4 35//6
f 40//3 39//3 37//3
f 42//5 41//5 39//3
f 44//6 43//6 41//5
f 46//6 45//6 43//6
f 48//6 47//6 45//6
f 50//4 49//4 47//6
f 52//3 51//3 49//4
f 54//5 53//5 51//3
f 56//5 55//5 53//5
f 38//3 37//3 55//5
