# Blender v2.78 (sub 0) OBJ File: 'corewar.blend'
# www.blender.org
o Text_Text.002
v -0.357367 0.499216 -0.120000
v -0.284483 0.499216 -0.120000
v -0.284483 0.572100 -0.120000
v -0.357367 0.572100 -0.120000
v -0.297806 0.358150 -0.120000
v -0.138715 0.358150 -0.120000
v -0.138715 0.415360 -0.120000
v -0.362069 0.415360 -0.120000
v -0.362069 -0.018025 -0.120000
v -0.361805 -0.028902 -0.120000
v -0.361013 -0.039326 -0.120000
v -0.359693 -0.049300 -0.120000
v -0.357846 -0.058821 -0.120000
v -0.355470 -0.067891 -0.120000
v -0.352567 -0.076509 -0.120000
v -0.349135 -0.084675 -0.120000
v -0.345176 -0.092389 -0.120000
v -0.340689 -0.099652 -0.120000
v -0.335674 -0.106463 -0.120000
v -0.330130 -0.112823 -0.120000
v -0.324060 -0.118730 -0.120000
v -0.317597 -0.124175 -0.120000
v -0.310878 -0.129147 -0.120000
v -0.303904 -0.133645 -0.120000
v -0.296674 -0.137670 -0.120000
v -0.289188 -0.141221 -0.120000
v -0.281446 -0.144299 -0.120000
v -0.273448 -0.146903 -0.120000
v -0.265195 -0.149033 -0.120000
v -0.256686 -0.150691 -0.120000
v -0.247921 -0.151874 -0.120000
v -0.238900 -0.152585 -0.120000
v -0.229624 -0.152821 -0.120000
v -0.222647 -0.152693 -0.120000
v -0.215822 -0.152310 -0.120000
v -0.209150 -0.151670 -0.120000
v -0.202630 -0.150775 -0.120000
v -0.196262 -0.149624 -0.120000
v -0.190047 -0.148217 -0.120000
v -0.183984 -0.146554 -0.120000
v -0.178074 -0.144636 -0.120000
v -0.172316 -0.142462 -0.120000
v -0.166710 -0.140032 -0.120000
v -0.161257 -0.137346 -0.120000
v -0.155956 -0.134404 -0.120000
v -0.150857 -0.131338 -0.120000
v -0.146007 -0.128276 -0.120000
v -0.141409 -0.125220 -0.120000
v -0.137060 -0.122170 -0.120000
v -0.132962 -0.119125 -0.120000
v -0.129114 -0.116085 -0.120000
v -0.125517 -0.113051 -0.120000
v -0.122170 -0.110023 -0.120000
v -0.119073 -0.106999 -0.120000
v -0.116227 -0.103982 -0.120000
v -0.113631 -0.100969 -0.120000
v -0.111285 -0.097962 -0.120000
v -0.152038 -0.052508 -0.120000
v -0.157964 -0.059267 -0.120000
v -0.163989 -0.065439 -0.120000
v -0.170112 -0.071023 -0.120000
v -0.176332 -0.076019 -0.120000
v -0.182651 -0.080427 -0.120000
v -0.189067 -0.084248 -0.120000
v -0.195582 -0.087480 -0.120000
v -0.202194 -0.090125 -0.120000
v -0.208905 -0.092183 -0.120000
v -0.215713 -0.093652 -0.120000
v -0.222620 -0.094534 -0.120000
v -0.229624 -0.094828 -0.120000
v -0.240514 -0.094294 -0.120000
v -0.250457 -0.092694 -0.120000
v -0.259453 -0.090027 -0.120000
v -0.267503 -0.086294 -0.120000
v -0.274605 -0.081494 -0.120000
v -0.280760 -0.075627 -0.120000
v -0.285969 -0.068693 -0.120000
v -0.290230 -0.060693 -0.120000
v -0.293544 -0.051626 -0.120000
v -0.295912 -0.041493 -0.120000
v -0.297332 -0.030292 -0.120000
v -0.297806 -0.018025 -0.120000
v -0.357367 0.499216 0.120000
v -0.284483 0.499216 0.120000
v -0.284483 0.572100 0.120000
v -0.357367 0.572100 0.120000
v -0.297806 0.358150 0.120000
v -0.138715 0.358150 0.120000
v -0.138715 0.415360 0.120000
v -0.362069 0.415360 0.120000
v -0.362069 -0.018025 0.120000
v -0.361805 -0.028902 0.120000
v -0.361013 -0.039326 0.120000
v -0.359693 -0.049300 0.120000
v -0.357846 -0.058821 0.120000
v -0.355470 -0.067891 0.120000
v -0.352567 -0.076509 0.120000
v -0.349135 -0.084675 0.120000
v -0.345176 -0.092389 0.120000
v -0.340689 -0.099652 0.120000
v -0.335674 -0.106463 0.120000
v -0.330130 -0.112823 0.120000
v -0.324060 -0.118730 0.120000
v -0.317597 -0.124175 0.120000
v -0.310878 -0.129147 0.120000
v -0.303904 -0.133645 0.120000
v -0.296674 -0.137670 0.120000
v -0.289188 -0.141221 0.120000
v -0.281446 -0.144299 0.120000
v -0.273448 -0.146903 0.120000
v -0.265195 -0.149033 0.120000
v -0.256686 -0.150691 0.120000
v -0.247921 -0.151874 0.120000
v -0.238900 -0.152585 0.120000
v -0.229624 -0.152821 0.120000
v -0.222647 -0.152693 0.120000
v -0.215822 -0.152310 0.120000
v -0.209150 -0.151670 0.120000
v -0.202630 -0.150775 0.120000
v -0.196262 -0.149624 0.120000
v -0.190047 -0.148217 0.120000
v -0.183984 -0.146554 0.120000
v -0.178074 -0.144636 0.120000
v -0.172316 -0.142462 0.120000
v -0.166710 -0.140032 0.120000
v -0.161257 -0.137346 0.120000
v -0.155956 -0.134404 0.120000
v -0.150857 -0.131338 0.120000
v -0.146007 -0.128276 0.120000
v -0.141409 -0.125220 0.120000
v -0.137060 -0.122170 0.120000
v -0.132962 -0.119125 0.120000
v -0.129114 -0.116085 0.120000
v -0.125517 -0.113051 0.120000
v -0.122170 -0.110023 0.120000
v -0.119073 -0.106999 0.120000
v -0.116227 -0.103982 0.120000
v -0.113631 -0.100969 0.120000
v -0.111285 -0.097962 0.120000
v -0.152038 -0.052508 0.120000
v -0.157964 -0.059267 0.120000
v -0.163989 -0.065439 0.120000
v -0.170112 -0.071023 0.120000
v -0.176332 -0.076019 0.120000
v -0.182651 -0.080427 0.120000
v -0.189067 -0.084248 0.120000
v -0.195582 -0.087480 0.120000
v -0.202194 -0.090125 0.120000
v -0.208905 -0.092183 0.120000
v -0.215713 -0.093652 0.120000
v -0.222620 -0.094534 0.120000
v -0.229624 -0.094828 0.120000
v -0.240514 -0.094294 0.120000
v -0.250457 -0.092694 0.120000
v -0.259453 -0.090027 0.120000
v -0.267503 -0.086294 0.120000
v -0.274605 -0.081494 0.120000
v -0.280760 -0.075627 0.120000
v -0.285969 -0.068693 0.120000
v -0.290230 -0.060693 0.120000
v -0.293544 -0.051626 0.120000
v -0.295912 -0.041493 0.120000
v -0.297332 -0.030292 0.120000
v -0.297806 -0.018025 0.120000
v -0.357367 0.499216 0.120000
v -0.357367 0.499216 -0.120000
v -0.284483 0.499216 0.120000
v -0.284483 0.499216 -0.120000
v -0.284483 0.572100 0.120000
v -0.284483 0.572100 -0.120000
v -0.357367 0.572100 0.120000
v -0.357367 0.572100 -0.120000
v -0.297806 0.358150 0.120000
v -0.297806 0.358150 -0.120000
v -0.138715 0.358150 0.120000
v -0.138715 0.358150 -0.120000
v -0.138715 0.415360 0.120000
v -0.138715 0.415360 -0.120000
v -0.362069 0.415360 0.120000
v -0.362069 0.415360 -0.120000
v -0.362069 -0.018025 0.120000
v -0.362069 -0.018025 -0.120000
v -0.361805 -0.028902 0.120000
v -0.361805 -0.028902 -0.120000
v -0.361013 -0.039326 0.120000
v -0.361013 -0.039326 -0.120000
v -0.359693 -0.049300 0.120000
v -0.359693 -0.049300 -0.120000
v -0.357846 -0.058821 0.120000
v -0.357846 -0.058821 -0.120000
v -0.355470 -0.067891 0.120000
v -0.355470 -0.067891 -0.120000
v -0.352567 -0.076509 0.120000
v -0.352567 -0.076509 -0.120000
v -0.349135 -0.084675 0.120000
v -0.349135 -0.084675 -0.120000
v -0.345176 -0.092389 0.120000
v -0.345176 -0.092389 -0.120000
v -0.340689 -0.099652 0.120000
v -0.340689 -0.099652 -0.120000
v -0.335674 -0.106463 0.120000
v -0.335674 -0.106463 -0.120000
v -0.330130 -0.112823 0.120000
v -0.330130 -0.112823 -0.120000
v -0.324060 -0.118730 0.120000
v -0.324060 -0.118730 -0.120000
v -0.317597 -0.124175 0.120000
v -0.317597 -0.124175 -0.120000
v -0.310878 -0.129147 0.120000
v -0.310878 -0.129147 -0.120000
v -0.303904 -0.133645 0.120000
v -0.303904 -0.133645 -0.120000
v -0.296674 -0.137670 0.120000
v -0.296674 -0.137670 -0.120000
v -0.289188 -0.141221 0.120000
v -0.289188 -0.141221 -0.120000
v -0.281446 -0.144299 0.120000
v -0.281446 -0.144299 -0.120000
v -0.273448 -0.146903 0.120000
v -0.273448 -0.146903 -0.120000
v -0.265195 -0.149033 0.120000
v -0.265195 -0.149033 -0.120000
v -0.256686 -0.150691 0.120000
v -0.256686 -0.150691 -0.120000
v -0.247921 -0.151874 0.120000
v -0.247921 -0.151874 -0.120000
v -0.238900 -0.152585 0.120000
v -0.238900 -0.152585 -0.120000
v -0.229624 -0.152821 0.120000
v -0.229624 -0.152821 -0.120000
v -0.222647 -0.152693 0.120000
v -0.222647 -0.152693 -0.120000
v -0.215822 -0.152310 0.120000
v -0.215822 -0.152310 -0.120000
v -0.209150 -0.151670 0.120000
v -0.209150 -0.151670 -0.120000
v -0.202630 -0.150775 0.120000
v -0.202630 -0.150775 -0.120000
v -0.196262 -0.149624 0.120000
v -0.196262 -0.149624 -0.120000
v -0.190047 -0.148217 0.120000
v -0.190047 -0.148217 -0.120000
v -0.183984 -0.146554 0.120000
v -0.183984 -0.146554 -0.120000
v -0.178074 -0.144636 0.120000
v -0.178074 -0.144636 -0.120000
v -0.172316 -0.142462 0.120000
v -0.172316 -0.142462 -0.120000
v -0.166710 -0.140032 0.120000
v -0.166710 -0.140032 -0.120000
v -0.161257 -0.137346 0.120000
v -0.161257 -0.137346 -0.120000
v -0.155956 -0.134404 0.120000
v -0.155956 -0.134404 -0.120000
v -0.150857 -0.131338 0.120000
v -0.150857 -0.131338 -0.120000
v -0.146007 -0.128276 0.120000
v -0.146007 -0.128276 -0.120000
v -0.141409 -0.125220 0.120000
v -0.141409 -0.125220 -0.120000
v -0.137060 -0.122170 0.120000
v -0.137060 -0.122170 -0.120000
v -0.132962 -0.119125 0.120000
v -0.132962 -0.119125 -0.120000
v -0.129114 -0.116085 0.120000
v -0.129114 -0.116085 -0.120000
v -0.125517 -0.113051 0.120000
v -0.125517 -0.113051 -0.120000
v -0.122170 -0.110023 0.120000
v -0.122170 -0.110023 -0.120000
v -0.119073 -0.106999 0.120000
v -0.119073 -0.106999 -0.120000
v -0.116227 -0.103982 0.120000
v -0.116227 -0.103982 -0.120000
v -0.113631 -0.100969 0.120000
v -0.113631 -0.100969 -0.120000
v -0.111285 -0.097962 0.120000
v -0.111285 -0.097962 -0.120000
v -0.152038 -0.052508 0.120000
v -0.152038 -0.052508 -0.120000
v -0.157964 -0.059267 0.120000
v -0.157964 -0.059267 -0.120000
v -0.163989 -0.065439 0.120000
v -0.163989 -0.065439 -0.120000
v -0.170112 -0.071023 0.120000
v -0.170112 -0.071023 -0.120000
v -0.176332 -0.076019 0.120000
v -0.176332 -0.076019 -0.120000
v -0.182651 -0.080427 0.120000
v -0.182651 -0.080427 -0.120000
v -0.189067 -0.084248 0.120000
v -0.189067 -0.084248 -0.120000
v -0.195582 -0.087480 0.120000
v -0.195582 -0.087480 -0.120000
v -0.202194 -0.090125 0.120000
v -0.202194 -0.090125 -0.120000
v -0.208905 -0.092183 0.120000
v -0.208905 -0.092183 -0.120000
v -0.215713 -0.093652 0.120000
v -0.215713 -0.093652 -0.120000
v -0.222620 -0.094534 0.120000
v -0.222620 -0.094534 -0.120000
v -0.229624 -0.094828 0.120000
v -0.229624 -0.094828 -0.120000
v -0.240514 -0.094294 0.120000
v -0.240514 -0.094294 -0.120000
v -0.250457 -0.092694 0.120000
v -0.250457 -0.092694 -0.120000
v -0.259453 -0.090027 0.120000
v -0.259453 -0.090027 -0.120000
v -0.267503 -0.086294 0.120000
v -0.267503 -0.086294 -0.120000
v -0.274605 -0.081494 0.120000
v -0.274605 -0.081494 -0.120000
v -0.280760 -0.075627 0.120000
v -0.280760 -0.075627 -0.120000
v -0.285969 -0.068693 0.120000
v -0.285969 -0.068693 -0.120000
v -0.290230 -0.060693 0.120000
v -0.290230 -0.060693 -0.120000
v -0.293544 -0.051626 0.120000
v -0.293544 -0.051626 -0.120000
v -0.295912 -0.041493 0.120000
v -0.295912 -0.041493 -0.120000
v -0.297332 -0.030292 0.120000
v -0.297332 -0.030292 -0.120000
v -0.297806 -0.018025 0.120000
v -0.297806 -0.018025 -0.120000
vn 0.0000 0.0000 -1.0000
vn 0.0000 0.0000 1.0000
vn 0.7071 -0.7071 0.0000
vn -0.7071 -0.7071 0.0000
vn 0.7071 0.7071 0.0000
vn -0.7071 0.7071 0.0000
vn -0.9999 -0.0121 0.0000
vn -0.9987 -0.0500 0.0000
vn -0.9946 -0.1035 0.0000
vn -0.9869 -0.1609 0.0000
vn -0.9750 -0.2220 0.0000
vn -0.9581 -0.2865 0.0000
vn -0.9750 -0.2221 0.0000
vn -0.9354 -0.3536 0.0000
vn -0.9064 -0.4223 0.0000
vn -0.8709 -0.4915 0.0000
vn -0.8287 -0.5597 0.0000
vn -0.7802 -0.6255 0.0000
vn -0.7262 -0.6874 0.0000
vn -0.6713 -0.7412 0.0000
vn -0.6199 -0.7847 0.0000
vn -0.5687 -0.8225 0.0000
vn -0.5145 -0.8575 0.0000
vn -0.4577 -0.8891 0.0000
vn -0.3992 -0.9168 0.0000
vn -0.3397 -0.9405 0.0000
vn -0.2799 -0.9600 0.0000
vn -0.2206 -0.9753 0.0000
vn -0.1625 -0.9867 0.0000
vn -0.1062 -0.9943 0.0000
vn -0.0520 -0.9986 0.0000
vn -0.0036 -1.0000 0.0000
vn 0.0372 -0.9993 0.0000
vn 0.0758 -0.9971 0.0000
vn 0.1157 -0.9933 0.0000
vn 0.1570 -0.9876 0.0000
vn 0.1993 -0.9799 0.0000
vn 0.2427 -0.9701 0.0000
vn 0.2867 -0.9580 0.0000
vn 0.3311 -0.9436 0.0000
vn 0.3756 -0.9268 0.0000
vn 0.4199 -0.9076 0.0000
vn 0.4636 -0.8860 0.0000
vn 0.5004 -0.8658 0.0000
vn 0.5246 -0.8513 0.0000
vn 0.5437 -0.8393 0.0000
vn 0.5639 -0.8258 0.0000
vn 0.5854 -0.8107 0.0000
vn 0.6082 -0.7938 0.0000
vn 0.6324 -0.7747 0.0000
vn 0.6579 -0.7530 0.0000
vn 0.6849 -0.7286 0.0000
vn 0.7132 -0.7010 0.0000
vn 0.7427 -0.6696 0.0000
vn 0.7732 -0.6341 0.0000
vn 0.9994 0.0342 0.0000
vn -0.0055 1.0000 0.0000
vn -0.7340 0.6791 0.0000
vn -0.6950 0.7190 0.0000
vn -0.6503 0.7596 0.0000
vn -0.5995 0.8003 0.0000
vn -0.5422 0.8402 0.0000
vn -0.4784 0.8781 0.0000
vn -0.4083 0.9128 0.0000
vn -0.3325 0.9431 0.0000
vn -0.2522 0.9677 0.0000
vn -0.1690 0.9856 0.0000
vn -0.0843 0.9964 0.0000
vn 0.0035 1.0000 0.0000
vn -0.0844 0.9964 0.0000
vn 0.1040 0.9946 0.0000
vn 0.2220 0.9750 0.0000
vn 0.3534 0.9355 0.0000
vn 0.4919 0.8706 0.0000
vn 0.6271 0.7789 0.0000
vn 0.7473 0.6645 0.0000
vn 0.8436 0.5370 0.0000
vn 0.9131 0.4077 0.0000
vn 0.8436 0.5369 0.0000
vn 0.9582 0.2859 0.0000
vn 0.9842 0.1769 0.0000
vn 0.9966 0.0822 0.0000
vn 0.9998 0.0193 0.0000
s off
f 6//1 8//1 7//1
f 6//1 5//1 8//1
f 5//1 9//1 8//1
f 82//1 9//1 5//1
f 81//1 9//1 82//1
f 81//1 10//1 9//1
f 81//1 11//1 10//1
f 80//1 11//1 81//1
f 80//1 12//1 11//1
f 79//1 12//1 80//1
f 79//1 13//1 12//1
f 78//1 13//1 79//1
f 57//1 59//1 58//1
f 78//1 14//1 13//1
f 57//1 60//1 59//1
f 77//1 14//1 78//1
f 57//1 61//1 60//1
f 77//1 15//1 14//1
f 76//1 15//1 77//1
f 57//1 62//1 61//1
f 75//1 15//1 76//1
f 57//1 63//1 62//1
f 75//1 16//1 15//1
f 57//1 64//1 63//1
f 74//1 16//1 75//1
f 57//1 65//1 64//1
f 74//1 17//1 16//1
f 73//1 17//1 74//1
f 57//1 66//1 65//1
f 72//1 17//1 73//1
f 57//1 67//1 66//1
f 57//1 68//1 67//1
f 72//1 18//1 17//1
f 71//1 18//1 72//1
f 57//1 69//1 68//1
f 70//1 18//1 71//1
f 57//1 70//1 69//1
f 57//1 18//1 70//1
f 56//1 18//1 57//1
f 56//1 19//1 18//1
f 55//1 19//1 56//1
f 54//1 19//1 55//1
f 54//1 20//1 19//1
f 53//1 20//1 54//1
f 52//1 20//1 53//1
f 52//1 21//1 20//1
f 51//1 21//1 52//1
f 50//1 21//1 51//1
f 50//1 22//1 21//1
f 49//1 22//1 50//1
f 48//1 22//1 49//1
f 48//1 23//1 22//1
f 47//1 23//1 48//1
f 46//1 23//1 47//1
f 46//1 24//1 23//1
f 45//1 24//1 46//1
f 45//1 25//1 24//1
f 44//1 25//1 45//1
f 43//1 25//1 44//1
f 43//1 26//1 25//1
f 42//1 26//1 43//1
f 42//1 27//1 26//1
f 41//1 27//1 42//1
f 41//1 28//1 27//1
f 40//1 28//1 41//1
f 39//1 28//1 40//1
f 39//1 29//1 28//1
f 38//1 29//1 39//1
f 38//1 30//1 29//1
f 37//1 30//1 38//1
f 37//1 31//1 30//1
f 36//1 31//1 37//1
f 35//1 31//1 36//1
f 35//1 32//1 31//1
f 34//1 32//1 35//1
f 34//1 33//1 32//1
f 2//1 4//1 3//1
f 2//1 1//1 4//1
f 90//2 88//2 89//2
f 87//2 88//2 90//2
f 91//2 87//2 90//2
f 91//2 164//2 87//2
f 91//2 163//2 164//2
f 92//2 163//2 91//2
f 93//2 163//2 92//2
f 93//2 162//2 163//2
f 94//2 162//2 93//2
f 94//2 161//2 162//2
f 95//2 161//2 94//2
f 95//2 160//2 161//2
f 141//2 139//2 140//2
f 96//2 160//2 95//2
f 142//2 139//2 141//2
f 96//2 159//2 160//2
f 143//2 139//2 142//2
f 97//2 159//2 96//2
f 97//2 158//2 159//2
f 144//2 139//2 143//2
f 97//2 157//2 158//2
f 145//2 139//2 144//2
f 98//2 157//2 97//2
f 146//2 139//2 145//2
f 98//2 156//2 157//2
f 147//2 139//2 146//2
f 99//2 156//2 98//2
f 99//2 155//2 156//2
f 148//2 139//2 147//2
f 99//2 154//2 155//2
f 149//2 139//2 148//2
f 150//2 139//2 149//2
f 100//2 154//2 99//2
f 100//2 153//2 154//2
f 151//2 139//2 150//2
f 100//2 152//2 153//2
f 152//2 139//2 151//2
f 100//2 139//2 152//2
f 100//2 138//2 139//2
f 101//2 138//2 100//2
f 101//2 137//2 138//2
f 101//2 136//2 137//2
f 102//2 136//2 101//2
f 102//2 135//2 136//2
f 102//2 134//2 135//2
f 103//2 134//2 102//2
f 103//2 133//2 134//2
f 103//2 132//2 133//2
f 104//2 132//2 103//2
f 104//2 131//2 132//2
f 104//2 130//2 131//2
f 105//2 130//2 104//2
f 105//2 129//2 130//2
f 105//2 128//2 129//2
f 106//2 128//2 105//2
f 106//2 127//2 128//2
f 107//2 127//2 106//2
f 107//2 126//2 127//2
f 107//2 125//2 126//2
f 108//2 125//2 107//2
f 108//2 124//2 125//2
f 109//2 124//2 108//2
f 109//2 123//2 124//2
f 110//2 123//2 109//2
f 110//2 122//2 123//2
f 110//2 121//2 122//2
f 111//2 121//2 110//2
f 111//2 120//2 121//2
f 112//2 120//2 111//2
f 112//2 119//2 120//2
f 113//2 119//2 112//2
f 113//2 118//2 119//2
f 113//2 117//2 118//2
f 114//2 117//2 113//2
f 114//2 116//2 117//2
f 115//2 116//2 114//2
f 86//2 84//2 85//2
f 83//2 84//2 86//2
s 1
f 168//3 165//4 166//4
f 170//5 167//3 168//3
f 172//6 169//5 170//5
f 166//4 171//6 172//6
f 176//3 173//3 174//3
f 178//5 175//3 176//3
f 180//6 177//5 178//5
f 182//7 179//6 180//6
f 184//8 181//7 182//7
f 186//9 183//8 184//8
f 188//10 185//9 186//9
f 190//11 187//10 188//10
f 192//12 189//13 190//11
f 194//14 191//12 192//12
f 196//15 193//14 194//14
f 198//16 195//15 196//15
f 200//17 197//16 198//16
f 202//18 199//17 200//17
f 204//19 201//18 202//18
f 206//20 203//19 204//19
f 208//21 205//20 206//20
f 210//22 207//21 208//21
f 212//23 209//22 210//22
f 214//24 211//23 212//23
f 216//25 213//24 214//24
f 218//26 215//25 216//25
f 220//27 217//26 218//26
f 222//28 219//27 220//27
f 224//29 221//28 222//28
f 226//30 223//29 224//29
f 228//31 225//30 226//30
f 230//32 227//31 228//31
f 232//33 229//32 230//32
f 234//34 231//33 232//33
f 236//35 233//34 234//34
f 238//36 235//35 236//35
f 240//37 237//36 238//36
f 242//38 239//37 240//37
f 244//39 241//38 242//38
f 246//40 243//39 244//39
f 248//41 245//40 246//40
f 250//42 247//41 248//41
f 252//43 249//42 250//42
f 254//44 251//43 252//43
f 256//45 253//44 254//44
f 258//46 255//45 256//45
f 260//47 257//46 258//46
f 262//48 259//47 260//47
f 264//49 261//48 262//48
f 266//50 263//49 264//49
f 268//51 265//50 266//50
f 270//52 267//51 268//51
f 272//53 269//52 270//52
f 274//54 271//53 272//53
f 276//55 273//54 274//54
f 278//56 275//55 276//55
f 280//57 277//56 278//56
f 282//58 279//57 280//57
f 284//59 281//58 282//58
f 286//60 283//59 284//59
f 288//61 285//60 286//60
f 290//62 287//61 288//61
f 292//63 289//62 290//62
f 294//64 291//63 292//63
f 296//65 293//64 294//64
f 298//66 295//65 296//65
f 300//67 297//66 298//66
f 302//68 299//67 300//67
f 304//69 301//70 302//68
f 306//71 303//69 304//69
f 308//72 305//71 306//71
f 310//73 307//72 308//72
f 312//74 309//73 310//73
f 314//75 311//74 312//74
f 316//76 313//75 314//75
f 318//77 315//76 316//76
f 320//78 317//79 318//77
f 322//80 319//78 320//78
f 324//81 321//80 322//80
f 326//82 323//81 324//81
f 328//83 325//82 326//82
f 174//3 327//83 328//83
f 168//3 167//3 165//4
f 170//5 169//5 167//3
f 172//6 171//6 169//5
f 166//4 165//4 171//6
f 176//3 175//3 173//3
f 178//5 177//5 175//3
f 180//6 179//6 177//5
f 182//7 181//7 179//6
f 184//8 183//8 181//7
f 186//9 185//9 183//8
f 188//10 187//10 185//9
f 190//11 189//13 187//10
f 192//12 191//12 189//13
f 194//14 193//14 191//12
f 196//15 195//15 193//14
f 198//16 197//16 195//15
f 200//17 199//17 197//16
f 202//18 201//18 199//17
f 204//19 203//19 201//18
f 206//20 205//20 203//19
f 208//21 207//21 205//20
f 210//22 209//22 207//21
f 212//23 211//23 209//22
f 214//24 213//24 211//23
f 216//25 215//25 213//24
f 218//26 217//26 215//25
f 220//27 219//27 217//26
f 222//28 221//28 219//27
f 224//29 223//29 221//28
f 226//30 225//30 223//29
f 228//31 227//31 225//30
f 230//32 229//32 227//31
f 232//33 231//33 229//32
f 234//34 233//34 231//33
f 236//35 235//35 233//34
f 238//36 237//36 235//35
f 240//37 239//37 237//36
f 242//38 241//38 239//37
f 244//39 243//39 241//38
f 246//40 245//40 243//39
f 248//41 247//41 245//40
f 250//42 249//42 247//41
f 252//43 251//43 249//42
f 254//44 253//44 251//43
f 256//45 255//45 253//44
f 258//46 257//46 255//45
f 260//47 259//47 257//46
f 262//48 261//48 259//47
f 264//49 263//49 261//48
f 266//50 265//50 263//49
f 268//51 267//51 265//50
f 270//52 269//52 267//51
f 272//53 271//53 269//52
f 274//54 273//54 271//53
f 276//55 275//55 273//54
f 278//56 277//56 275//55
f 280//57 279//57 277//56
f 282//58 281//58 279//57
f 284//59 283//59 281//58
f 286//60 285//60 283//59
f 288//61 287//61 285//60
f 290//62 289//62 287//61
f 292//63 291//63 289//62
f 294//64 293//64 291//63
f 296//65 295//65 293//64
f 298//66 297//66 295//65
f 300//67 299//67 297//66
f 302//68 301//70 299//67
f 304//69 303//69 301//70
f 306//71 305//71 303//69
f 308//72 307//72 305//71
f 310//73 309//73 307//72
f 312//74 311//74 309//73
f 314//75 313//75 311//74
f 316//76 315//76 313//75
f 318//77 317//79 315//76
f 320//78 319//78 317//79
f 322//80 321//80 319//78
f 324//81 323//81 321//80
f 326//82 325//82 323//81
f 328//83 327//83 325//82
f 174//3 173//3 327//83
