# Blender v2.78 (sub 0) OBJ File: 'corewar.blend'
# www.blender.org
o Text_Text.002
v -0.177900 0.000000 -0.120000
v -0.113636 0.000000 -0.120000
v -0.113636 0.572100 -0.120000
v -0.177900 0.572100 -0.120000
v -0.177900 0.224922 -0.120000
v -0.179467 0.224922 -0.120000
v -0.354232 0.415360 -0.120000
v -0.439655 0.415360 -0.120000
v -0.287618 0.250784 -0.120000
v -0.458464 0.000000 -0.120000
v -0.380878 0.000000 -0.120000
v -0.239812 0.210815 -0.120000
v -0.238245 0.210815 -0.120000
v -0.177900 0.144201 -0.120000
v -0.177900 0.000000 0.120000
v -0.113636 0.000000 0.120000
v -0.113636 0.572100 0.120000
v -0.177900 0.572100 0.120000
v -0.177900 0.224922 0.120000
v -0.179467 0.224922 0.120000
v -0.354232 0.415360 0.120000
v -0.439655 0.415360 0.120000
v -0.287618 0.250784 0.120000
v -0.458464 0.000000 0.120000
v -0.380878 0.000000 0.120000
v -0.239812 0.210815 0.120000
v -0.238245 0.210815 0.120000
v -0.177900 0.144201 0.120000
v -0.177900 0.000000 0.120000
v -0.177900 0.000000 -0.120000
v -0.113636 0.000000 0.120000
v -0.113636 0.000000 -0.120000
v -0.113636 0.572100 0.120000
v -0.113636 0.572100 -0.120000
v -0.177900 0.572100 0.120000
v -0.177900 0.572100 -0.120000
v -0.177900 0.224922 0.120000
v -0.177900 0.224922 -0.120000
v -0.179467 0.224922 0.120000
v -0.179467 0.224922 -0.120000
v -0.354232 0.415360 0.120000
v -0.354232 0.415360 -0.120000
v -0.439655 0.415360 0.120000
v -0.439655 0.415360 -0.120000
v -0.287618 0.250784 0.120000
v -0.287618 0.250784 -0.120000
v -0.458464 0.000000 0.120000
v -0.458464 0.000000 -0.120000
v -0.380878 0.000000 0.120000
v -0.380878 0.000000 -0.120000
v -0.239812 0.210815 0.120000
v -0.239812 0.210815 -0.120000
v -0.238245 0.210815 0.120000
v -0.238245 0.210815 -0.120000
v -0.177900 0.144201 0.120000
v -0.177900 0.144201 -0.120000
vn 0.0000 0.0000 -1.0000
vn 0.0000 0.0000 1.0000
vn 0.7071 -0.7071 0.0000
vn -0.7071 -0.7071 0.0000
vn 0.7071 0.7071 0.0000
vn -0.7071 0.7071 0.0000
vn 0.4024 0.9154 0.0000
vn -0.9161 0.4009 0.0000
vn -0.9973 -0.0738 0.0000
vn -0.8840 -0.4674 0.0000
vn 0.4711 -0.8821 0.0000
vn -0.4053 -0.9142 0.0000
vn -0.9330 -0.3598 0.0000
s off
f 2//1 4//1 3//1
f 2//1 5//1 4//1
f 6//1 8//1 7//1
f 6//1 9//1 8//1
f 6//1 12//1 9//1
f 12//1 10//1 9//1
f 2//1 6//1 5//1
f 2//1 14//1 6//1
f 14//1 13//1 6//1
f 13//1 12//1 6//1
f 11//1 10//1 12//1
f 2//1 1//1 14//1
f 18//2 16//2 17//2
f 19//2 16//2 18//2
f 22//2 20//2 21//2
f 23//2 20//2 22//2
f 26//2 20//2 23//2
f 24//2 26//2 23//2
f 20//2 16//2 19//2
f 28//2 16//2 20//2
f 27//2 28//2 20//2
f 26//2 27//2 20//2
f 24//2 25//2 26//2
f 15//2 16//2 28//2
s 1
f 32//3 29//4 30//4
f 34//5 31//3 32//3
f 36//6 33//5 34//5
f 38//6 35//6 36//6
f 40//7 37//6 38//6
f 42//7 39//7 40//7
f 44//8 41//7 42//7
f 46//9 43//8 44//8
f 48//10 45//9 46//9
f 50//11 47//10 48//10
f 52//11 49//11 50//11
f 54//12 51//11 52//11
f 56//13 53//12 54//12
f 30//4 55//13 56//13
f 32//3 31//3 29//4
f 34//5 33//5 31//3
f 36//6 35//6 33//5
f 38//6 37//6 35//6
f 40//7 39//7 37//6
f 42//7 41//7 39//7
f 44//8 43//8 41//7
f 46//9 45//9 43//8
f 48//10 47//10 45//9
f 50//11 49//11 47//10
f 52//11 51//11 49//11
f 54//12 53//12 51//11
f 56//13 55//13 53//12
f 30//4 29//4 55//13
