# Blender v2.78 (sub 0) OBJ File: 'corewar.blend'
# www.blender.org
o Text_Text.002
v -0.282132 0.000000 -0.120000
v -0.227273 0.000000 -0.120000
v -0.059561 0.415360 -0.120000
v -0.126959 0.415360 -0.120000
v -0.253918 0.090125 -0.120000
v -0.255486 0.090125 -0.120000
v -0.382445 0.415360 -0.120000
v -0.449843 0.415360 -0.120000
v -0.282132 0.000000 0.120000
v -0.227273 0.000000 0.120000
v -0.059561 0.415360 0.120000
v -0.126959 0.415360 0.120000
v -0.253918 0.090125 0.120000
v -0.255486 0.090125 0.120000
v -0.382445 0.415360 0.120000
v -0.449843 0.415360 0.120000
v -0.282132 0.000000 0.120000
v -0.282132 0.000000 -0.120000
v -0.227273 0.000000 0.120000
v -0.227273 0.000000 -0.120000
v -0.059561 0.415360 0.120000
v -0.059561 0.415360 -0.120000
v -0.126959 0.415360 0.120000
v -0.126959 0.415360 -0.120000
v -0.253918 0.090125 0.120000
v -0.253918 0.090125 -0.120000
v -0.255486 0.090125 0.120000
v -0.255486 0.090125 -0.120000
v -0.382445 0.415360 0.120000
v -0.382445 0.415360 -0.120000
v -0.449843 0.415360 0.120000
v -0.449843 0.415360 -0.120000
vn 0.0000 0.0000 -1.0000
vn 0.0000 0.0000 1.0000
vn 0.5593 -0.8290 0.0000
vn -0.5593 -0.8290 0.0000
vn 0.8290 0.5593 0.0000
vn -0.5641 0.8257 0.0000
vn 0.5641 0.8257 0.0000
vn -0.8290 0.5593 0.0000
s off
f 2//1 4//1 3//1
f 2//1 5//1 4//1
f 6//1 8//1 7//1
f 6//1 1//1 8//1
f 2//1 6//1 5//1
f 2//1 1//1 6//1
f 12//2 10//2 11//2
f 13//2 10//2 12//2
f 16//2 14//2 15//2
f 9//2 14//2 16//2
f 14//2 10//2 13//2
f 9//2 10//2 14//2
s 1
f 20//3 17//4 18//4
f 22//5 19//3 20//3
f 24//6 21//5 22//5
f 26//6 23//6 24//6
f 28//7 25//6 26//6
f 30//7 27//7 28//7
f 32//8 29//7 30//7
f 18//4 31//8 32//8
f 20//3 19//3 17//4
f 22//5 21//5 19//3
f 24//6 23//6 21//5
f 26//6 25//6 23//6
f 28//7 27//7 25//6
f 30//7 29//7 27//7
f 32//8 31//8 29//7
f 18//4 17//4 31//8
