# Blender v2.78 (sub 0) OBJ File: 'corewar.blend'
# www.blender.org
o Text_Text.002
v -0.186520 0.000000 -0.120000
v -0.126959 0.000000 -0.120000
v -0.058777 0.414577 -0.120000
v -0.122257 0.414577 -0.120000
v -0.165360 0.101881 -0.120000
v -0.166928 0.101881 -0.120000
v -0.222571 0.281348 -0.120000
v -0.280564 0.281348 -0.120000
v -0.334639 0.101881 -0.120000
v -0.336207 0.101881 -0.120000
v -0.387147 0.414577 -0.120000
v -0.449843 0.414577 -0.120000
v -0.373824 0.000000 -0.120000
v -0.315047 0.000000 -0.120000
v -0.251567 0.205329 -0.120000
v -0.250000 0.205329 -0.120000
v -0.186520 0.000000 0.120000
v -0.126959 0.000000 0.120000
v -0.058777 0.414577 0.120000
v -0.122257 0.414577 0.120000
v -0.165360 0.101881 0.120000
v -0.166928 0.101881 0.120000
v -0.222571 0.281348 0.120000
v -0.280564 0.281348 0.120000
v -0.334639 0.101881 0.120000
v -0.336207 0.101881 0.120000
v -0.387147 0.414577 0.120000
v -0.449843 0.414577 0.120000
v -0.373824 0.000000 0.120000
v -0.315047 0.000000 0.120000
v -0.251567 0.205329 0.120000
v -0.250000 0.205329 0.120000
v -0.186520 0.000000 0.120000
v -0.186520 0.000000 -0.120000
v -0.126959 0.000000 0.120000
v -0.126959 0.000000 -0.120000
v -0.058777 0.414577 0.120000
v -0.058777 0.414577 -0.120000
v -0.122257 0.414577 0.120000
v -0.122257 0.414577 -0.120000
v -0.165360 0.101881 0.120000
v -0.165360 0.101881 -0.120000
v -0.166928 0.101881 0.120000
v -0.166928 0.101881 -0.120000
v -0.222571 0.281348 0.120000
v -0.222571 0.281348 -0.120000
v -0.280564 0.281348 0.120000
v -0.280564 0.281348 -0.120000
v -0.334639 0.101881 0.120000
v -0.334639 0.101881 -0.120000
v -0.336207 0.101881 0.120000
v -0.336207 0.101881 -0.120000
v -0.387147 0.414577 0.120000
v -0.387147 0.414577 -0.120000
v -0.449843 0.414577 0.120000
v -0.449843 0.414577 -0.120000
v -0.373824 0.000000 0.120000
v -0.373824 0.000000 -0.120000
v -0.315047 0.000000 0.120000
v -0.315047 0.000000 -0.120000
v -0.251567 0.205329 0.120000
v -0.251567 0.205329 -0.120000
v -0.250000 0.205329 0.120000
v -0.250000 0.205329 -0.120000
vn 0.0000 0.0000 -1.0000
vn 0.0000 0.0000 1.0000
vn 0.6472 -0.7623 0.0000
vn -0.5936 -0.8048 0.0000
vn 0.7623 0.6472 0.0000
vn -0.6570 0.7538 0.0000
vn 0.5932 0.8050 0.0000
vn -0.5964 0.8026 0.0000
vn 0.6478 0.7618 0.0000
vn -0.7682 0.6402 0.0000
vn -0.6402 -0.7682 0.0000
vn 0.5936 -0.8048 0.0000
s off
f 2//1 4//1 3//1
f 2//1 5//1 4//1
f 10//1 12//1 11//1
f 10//1 13//1 12//1
f 6//1 8//1 7//1
f 6//1 16//1 8//1
f 16//1 15//1 8//1
f 15//1 9//1 8//1
f 6//1 1//1 16//1
f 14//1 9//1 15//1
f 2//1 6//1 5//1
f 2//1 1//1 6//1
f 14//1 10//1 9//1
f 14//1 13//1 10//1
f 20//2 18//2 19//2
f 21//2 18//2 20//2
f 28//2 26//2 27//2
f 29//2 26//2 28//2
f 24//2 22//2 23//2
f 32//2 22//2 24//2
f 31//2 32//2 24//2
f 25//2 31//2 24//2
f 17//2 22//2 32//2
f 25//2 30//2 31//2
f 22//2 18//2 21//2
f 17//2 18//2 22//2
f 26//2 30//2 25//2
f 29//2 30//2 26//2
s 1
f 36//3 33//4 34//4
f 38//5 35//3 36//3
f 40//6 37//5 38//5
f 42//6 39//6 40//6
f 44//7 41//6 42//6
f 46//7 43//7 44//7
f 48//8 45//7 46//7
f 50//8 47//8 48//8
f 52//9 49//8 50//8
f 54//9 51//9 52//9
f 56//10 53//9 54//9
f 58//11 55//10 56//10
f 60//12 57//11 58//11
f 62//12 59//12 60//12
f 64//4 61//12 62//12
f 34//4 63//4 64//4
f 36//3 35//3 33//4
f 38//5 37//5 35//3
f 40//6 39//6 37//5
f 42//6 41//6 39//6
f 44//7 43//7 41//6
f 46//7 45//7 43//7
f 48//8 47//8 45//7
f 50//8 49//8 47//8
f 52//9 51//9 49//8
f 54//9 53//9 51//9
f 56//10 55//10 53//9
f 58//11 57//11 55//10
f 60//12 59//12 57//11
f 62//12 61//12 59//12
f 64//4 63//4 61//12
f 34//4 33//4 63//4
