# Blender v2.78 (sub 0) OBJ File: 'corewar.blend'
# www.blender.org
o Text_Text.002
v -0.428683 0.000000 -0.120000
v -0.082288 0.000000 -0.120000
v -0.082288 0.050157 -0.120000
v -0.343260 0.355016 -0.120000
v -0.343260 0.356583 -0.120000
v -0.097179 0.356583 -0.120000
v -0.097179 0.415360 -0.120000
v -0.427900 0.415360 -0.120000
v -0.427900 0.366771 -0.120000
v -0.169279 0.061129 -0.120000
v -0.169279 0.059561 -0.120000
v -0.428683 0.059561 -0.120000
v -0.428683 0.000000 0.120000
v -0.082288 0.000000 0.120000
v -0.082288 0.050157 0.120000
v -0.343260 0.355016 0.120000
v -0.343260 0.356583 0.120000
v -0.097179 0.356583 0.120000
v -0.097179 0.415360 0.120000
v -0.427900 0.415360 0.120000
v -0.427900 0.366771 0.120000
v -0.169279 0.061129 0.120000
v -0.169279 0.059561 0.120000
v -0.428683 0.059561 0.120000
v -0.428683 0.000000 0.120000
v -0.428683 0.000000 -0.120000
v -0.082288 0.000000 0.120000
v -0.082288 0.000000 -0.120000
v -0.082288 0.050157 0.120000
v -0.082288 0.050157 -0.120000
v -0.343260 0.355016 0.120000
v -0.343260 0.355016 -0.120000
v -0.343260 0.356583 0.120000
v -0.343260 0.356583 -0.120000
v -0.097179 0.356583 0.120000
v -0.097179 0.356583 -0.120000
v -0.097179 0.415360 0.120000
v -0.097179 0.415360 -0.120000
v -0.427900 0.415360 0.120000
v -0.427900 0.415360 -0.120000
v -0.427900 0.366771 0.120000
v -0.427900 0.366771 -0.120000
v -0.169279 0.061129 0.120000
v -0.169279 0.061129 -0.120000
v -0.169279 0.059561 0.120000
v -0.169279 0.059561 -0.120000
v -0.428683 0.059561 0.120000
v -0.428683 0.059561 -0.120000
vn 0.0000 0.0000 -1.0000
vn 0.0000 0.0000 1.0000
vn 0.7071 -0.7071 0.0000
vn -0.7071 -0.7071 0.0000
vn 0.9380 0.3466 0.0000
vn 0.7071 0.7071 0.0000
vn -0.7071 0.7071 0.0000
vn -0.9390 -0.3439 0.0000
s off
f 6//1 8//1 7//1
f 6//1 9//1 8//1
f 6//1 5//1 9//1
f 5//1 4//1 9//1
f 4//1 10//1 9//1
f 3//1 10//1 4//1
f 3//1 11//1 10//1
f 3//1 12//1 11//1
f 3//1 1//1 12//1
f 2//1 1//1 3//1
f 20//2 18//2 19//2
f 21//2 18//2 20//2
f 17//2 18//2 21//2
f 16//2 17//2 21//2
f 22//2 16//2 21//2
f 22//2 15//2 16//2
f 23//2 15//2 22//2
f 24//2 15//2 23//2
f 13//2 15//2 24//2
f 13//2 14//2 15//2
s 1
f 28//3 25//4 26//4
f 30//5 27//3 28//3
f 32//5 29//5 30//5
f 34//3 31//5 32//5
f 36//3 33//3 34//3
f 38//6 35//3 36//3
f 40//7 37//6 38//6
f 42//8 39//7 40//7
f 44//8 41//8 42//8
f 46//7 43//8 44//8
f 48//7 45//7 46//7
f 26//4 47//7 48//7
f 28//3 27//3 25//4
f 30//5 29//5 27//3
f 32//5 31//5 29//5
f 34//3 33//3 31//5
f 36//3 35//3 33//3
f 38//6 37//6 35//3
f 40//7 39//7 37//6
f 42//8 41//8 39//7
f 44//8 43//8 41//8
f 46//7 45//7 43//8
f 48//7 47//7 45//7
f 26//4 25//4 47//7
